0
SECTION
2
HEADER
9
$ACADVER
1
AC1003
9
$INSBASE
10
0.0
20
0.0
30
0.0
9
$EXTMIN
10
0.000
20
0.000
30
0.0
9
$EXTMAX
10
843.000
20
1147.000
30
0.0
9
$LIMMIN
10
0.000
20
0.000
9
$LIMMAX
10
843.000
20
1147.000
9
$LTSCALE
40
1.0
9
$LUNITS
70
2
9
$LUPREC
70
3
9
$LIMCHECK
70
0
9
$UCSNAME
2

9
$UCSORG
10
0.0
20
0.0
30
0.0
9
$UCSXDIR
10
1.0
20
0.0
30
0.0
9
$UCSYDIR
10
0.0
20
1.0
30
0.0
9
$WORLDVIEW
70
1
9
$UNITMODE
70
0
0
ENDSEC
0
SECTION
2
TABLES
0
TABLE
2
VPORT
70
1
0
VPORT
2
*ACTIVE
70
0
10
0.0
20
0.0
11
1.0
21
1.0
12
421.500
22
573.500
13
0.0
23
0.0
14
1.0
24
1.0
15
0.0
25
0.0
16
0.0
26
0.0
36
1.0
17
0.0
27
0.0
37
0.0
40
500.0
41
1.361
42
50.0
43
0.0
44
0.0
50
0.0
51
0.0
71
0
72
100
73
1
74
1
75
0
76
0
77
0
78
0
0
ENDTAB
0
TABLE
2
LTYPE
70
1
0
LTYPE
2
CONTINUOUS
70
64
3
Solid line
72
65
73
0
40
0.000
0
ENDTAB
0
TABLE
2
LAYER
70
1
0
LAYER
2
0
70
64
62
7
6
CONTINUOUS
0
ENDTAB
0
ENDSEC
0
SECTION
2
BLOCKS
0
ENDSEC
0
SECTION
2
ENTITIES
0
POLYLINE
8
0
6
CONTINUOUS
66
1
62
7
10
0.0
20
0.0
30
0.000000
0
VERTEX
8
0
10
131.000000
20
996.000000
0
VERTEX
8
0
10
133.900000
20
997.300000
0
VERTEX
8
0
10
137.000000
20
999.000000
0
VERTEX
8
0
10
138.000000
20
1001.000000
0
VERTEX
8
0
10
137.200000
20
1004.100000
0
VERTEX
8
0
10
134.000000
20
1012.000000
0
VERTEX
8
0
10
136.000000
20
1015.000000
0
VERTEX
8
0
10
142.000000
20
1016.000000
0
VERTEX
8
0
10
156.900000
20
1006.700000
0
VERTEX
8
0
10
158.000000
20
1006.000000
0
VERTEX
8
0
10
160.000000
20
1006.000000
0
VERTEX
8
0
10
161.000000
20
1007.000000
0
VERTEX
8
0
10
160.352941
20
1011.088235
0
VERTEX
8
0
10
159.200000
20
1015.100000
0
VERTEX
8
0
10
153.000000
20
1022.000000
0
VERTEX
8
0
10
152.100000
20
1022.200000
0
VERTEX
8
0
10
146.000000
20
1025.000000
0
VERTEX
8
0
10
134.000000
20
1025.000000
0
VERTEX
8
0
10
126.100000
20
1022.700000
0
VERTEX
8
0
10
124.900000
20
1022.200000
0
VERTEX
8
0
10
118.000000
20
1017.000000
0
VERTEX
8
0
10
116.000000
20
1014.000000
0
VERTEX
8
0
10
116.000000
20
1007.000000
0
VERTEX
8
0
10
117.800000
20
1002.900000
0
VERTEX
8
0
10
121.000000
20
998.000000
0
VERTEX
8
0
10
121.900000
20
997.800000
0
VERTEX
8
0
10
125.060000
20
996.420000
0
VERTEX
8
0
10
131.000000
20
996.000000
0
SEQEND
0
POLYLINE
8
0
6
CONTINUOUS
66
1
62
7
10
0.0
20
0.0
30
0.000000
0
VERTEX
8
0
10
161.000000
20
973.000000
0
VERTEX
8
0
10
162.000000
20
974.000000
0
VERTEX
8
0
10
162.000000
20
977.000000
0
VERTEX
8
0
10
159.700000
20
983.900000
0
VERTEX
8
0
10
159.300000
20
985.100000
0
VERTEX
8
0
10
158.000000
20
990.000000
0
VERTEX
8
0
10
158.700000
20
991.100000
0
VERTEX
8
0
10
161.000000
20
998.000000
0
VERTEX
8
0
10
160.000000
20
999.000000
0
VERTEX
8
0
10
154.000000
20
999.000000
0
VERTEX
8
0
10
150.000000
20
997.000000
0
VERTEX
8
0
10
146.000000
20
989.000000
0
VERTEX
8
0
10
146.000000
20
985.000000
0
VERTEX
8
0
10
147.517241
20
981.206897
0
VERTEX
8
0
10
149.000000
20
978.000000
0
VERTEX
8
0
10
154.200000
20
974.400000
0
VERTEX
8
0
10
161.000000
20
973.000000
0
SEQEND
0
POLYLINE
8
0
6
CONTINUOUS
66
1
62
7
10
0.0
20
0.0
30
0.000000
0
VERTEX
8
0
10
89.000000
20
964.000000
0
VERTEX
8
0
10
89.000000
20
966.000000
0
VERTEX
8
0
10
85.153846
20
969.230769
0
VERTEX
8
0
10
82.800000
20
970.600000
0
VERTEX
8
0
10
74.000000
20
973.000000
0
VERTEX
8
0
10
65.000000
20
972.000000
0
VERTEX
8
0
10
64.000000
20
971.000000
0
VERTEX
8
0
10
65.900000
20
969.800000
0
VERTEX
8
0
10
67.900000
20
968.800000
0
VERTEX
8
0
10
77.037931
20
964.455172
0
VERTEX
8
0
10
89.000000
20
964.000000
0
SEQEND
0
POLYLINE
8
0
6
CONTINUOUS
66
1
62
7
10
0.0
20
0.0
30
0.000000
0
VERTEX
8
0
10
522.000000
20
917.000000
0
VERTEX
8
0
10
525.000000
20
920.000000
0
VERTEX
8
0
10
525.000000
20
934.000000
0
VERTEX
8
0
10
519.000000
20
944.000000
0
VERTEX
8
0
10
517.000000
20
945.000000
0
VERTEX
8
0
10
515.000000
20
944.000000
0
VERTEX
8
0
10
515.647059
20
942.911765
0
VERTEX
8
0
10
521.000000
20
917.000000
0
VERTEX
8
0
10
522.000000
20
917.000000
0
SEQEND
0
POLYLINE
8
0
6
CONTINUOUS
66
1
62
7
10
0.0
20
0.0
30
0.000000
0
VERTEX
8
0
10
495.000000
20
814.000000
0
VERTEX
8
0
10
500.230769
20
820.846154
0
VERTEX
8
0
10
509.200000
20
835.900000
0
VERTEX
8
0
10
511.200000
20
839.900000
0
VERTEX
8
0
10
514.000000
20
850.000000
0
VERTEX
8
0
10
514.000000
20
859.000000
0
VERTEX
8
0
10
512.000000
20
861.000000
0
VERTEX
8
0
10
507.300000
20
853.900000
0
VERTEX
8
0
10
506.700000
20
852.100000
0
VERTEX
8
0
10
506.000000
20
836.000000
0
VERTEX
8
0
10
502.000000
20
832.000000
0
VERTEX
8
0
10
501.000000
20
832.000000
0
VERTEX
8
0
10
496.000000
20
827.000000
0
VERTEX
8
0
10
492.000000
20
820.000000
0
VERTEX
8
0
10
492.000000
20
817.000000
0
VERTEX
8
0
10
495.000000
20
814.000000
0
SEQEND
0
POLYLINE
8
0
6
CONTINUOUS
66
1
62
7
10
0.0
20
0.0
30
0.000000
0
VERTEX
8
0
10
546.000000
20
800.000000
0
VERTEX
8
0
10
564.000000
20
805.000000
0
VERTEX
8
0
10
572.044554
20
804.445545
0
VERTEX
8
0
10
588.000000
20
803.000000
0
VERTEX
8
0
10
594.000000
20
806.000000
0
VERTEX
8
0
10
595.000000
20
807.000000
0
VERTEX
8
0
10
593.000000
20
809.000000
0
VERTEX
8
0
10
578.911765
20
810.647059
0
VERTEX
8
0
10
576.206897
20
811.517241
0
VERTEX
8
0
10
572.000000
20
814.000000
0
VERTEX
8
0
10
573.000000
20
815.000000
0
VERTEX
8
0
10
585.076923
20
819.615385
0
VERTEX
8
0
10
588.923077
20
820.384615
0
VERTEX
8
0
10
606.000000
20
821.000000
0
VERTEX
8
0
10
607.000000
20
822.000000
0
VERTEX
8
0
10
599.100000
20
827.200000
0
VERTEX
8
0
10
598.000000
20
828.000000
0
VERTEX
8
0
10
586.000000
20
828.000000
0
VERTEX
8
0
10
577.100000
20
823.800000
0
VERTEX
8
0
10
575.100000
20
822.800000
0
VERTEX
8
0
10
552.923077
20
809.384615
0
VERTEX
8
0
10
543.000000
20
807.000000
0
VERTEX
8
0
10
540.800000
20
803.100000
0
VERTEX
8
0
10
540.000000
20
802.000000
0
VERTEX
8
0
10
541.000000
20
800.000000
0
VERTEX
8
0
10
546.000000
20
800.000000
0
SEQEND
0
POLYLINE
8
0
6
CONTINUOUS
66
1
62
7
10
0.0
20
0.0
30
0.000000
0
VERTEX
8
0
10
448.000000
20
775.000000
0
VERTEX
8
0
10
449.100000
20
775.800000
0
VERTEX
8
0
10
469.100000
20
781.700000
0
VERTEX
8
0
10
470.900000
20
782.300000
0
VERTEX
8
0
10
491.053846
20
787.569231
0
VERTEX
8
0
10
497.946154
20
788.430769
0
VERTEX
8
0
10
511.000000
20
790.000000
0
VERTEX
8
0
10
528.000000
20
790.000000
0
VERTEX
8
0
10
529.000000
20
789.000000
0
VERTEX
8
0
10
531.000000
20
789.000000
0
VERTEX
8
0
10
532.000000
20
790.000000
0
VERTEX
8
0
10
531.000000
20
792.000000
0
VERTEX
8
0
10
528.100000
20
794.200000
0
VERTEX
8
0
10
526.100000
20
795.200000
0
VERTEX
8
0
10
517.932432
20
798.594595
0
VERTEX
8
0
10
513.067568
20
799.405405
0
VERTEX
8
0
10
496.000000
20
801.000000
0
VERTEX
8
0
10
484.088235
20
798.647059
0
VERTEX
8
0
10
476.088235
20
796.647059
0
VERTEX
8
0
10
461.100000
20
789.800000
0
VERTEX
8
0
10
455.000000
20
787.000000
0
VERTEX
8
0
10
448.800000
20
780.100000
0
VERTEX
8
0
10
448.200000
20
778.900000
0
VERTEX
8
0
10
447.000000
20
776.000000
0
VERTEX
8
0
10
448.000000
20
775.000000
0
SEQEND
0
POLYLINE
8
0
6
CONTINUOUS
66
1
62
7
10
0.0
20
0.0
30
0.000000
0
VERTEX
8
0
10
94.000000
20
756.000000
0
VERTEX
8
0
10
95.000000
20
758.000000
0
VERTEX
8
0
10
93.000000
20
762.000000
0
VERTEX
8
0
10
93.000000
20
769.000000
0
VERTEX
8
0
10
94.000000
20
770.000000
0
VERTEX
8
0
10
94.000000
20
790.000000
0
VERTEX
8
0
10
90.000000
20
797.000000
0
VERTEX
8
0
10
89.000000
20
797.000000
0
VERTEX
8
0
10
87.420000
20
792.940000
0
VERTEX
8
0
10
86.580000
20
787.060000
0
VERTEX
8
0
10
86.000000
20
786.000000
0
VERTEX
8
0
10
86.000000
20
772.000000
0
VERTEX
8
0
10
91.000000
20
758.000000
0
VERTEX
8
0
10
94.000000
20
756.000000
0
SEQEND
0
POLYLINE
8
0
6
CONTINUOUS
66
1
62
7
10
0.0
20
0.0
30
0.000000
0
VERTEX
8
0
10
173.000000
20
742.000000
0
VERTEX
8
0
10
178.000000
20
745.000000
0
VERTEX
8
0
10
178.000000
20
751.000000
0
VERTEX
8
0
10
176.200000
20
756.100000
0
VERTEX
8
0
10
175.000000
20
760.000000
0
VERTEX
8
0
10
176.384615
20
764.923077
0
VERTEX
8
0
10
178.000000
20
777.000000
0
VERTEX
8
0
10
177.000000
20
780.000000
0
VERTEX
8
0
10
174.000000
20
782.000000
0
VERTEX
8
0
10
172.000000
20
781.000000
0
VERTEX
8
0
10
173.000000
20
780.000000
0
VERTEX
8
0
10
173.000000
20
775.000000
0
VERTEX
8
0
10
171.594595
20
769.067568
0
VERTEX
8
0
10
168.200000
20
757.900000
0
VERTEX
8
0
10
167.800000
20
757.100000
0
VERTEX
8
0
10
165.000000
20
753.000000
0
VERTEX
8
0
10
163.000000
20
754.000000
0
VERTEX
8
0
10
159.800000
20
758.900000
0
VERTEX
8
0
10
157.300000
20
764.100000
0
VERTEX
8
0
10
153.000000
20
773.000000
0
VERTEX
8
0
10
150.000000
20
776.000000
0
VERTEX
8
0
10
147.700000
20
771.100000
0
VERTEX
8
0
10
147.000000
20
770.000000
0
VERTEX
8
0
10
148.405405
20
760.067568
0
VERTEX
8
0
10
148.800000
20
758.900000
0
VERTEX
8
0
10
151.240000
20
753.180000
0
VERTEX
8
0
10
154.000000
20
749.000000
0
VERTEX
8
0
10
157.900000
20
745.800000
0
VERTEX
8
0
10
159.900000
20
744.800000
0
VERTEX
8
0
10
166.923077
20
742.615385
0
VERTEX
8
0
10
173.000000
20
742.000000
0
SEQEND
0
POLYLINE
8
0
6
CONTINUOUS
66
1
62
7
10
0.0
20
0.0
30
0.000000
0
VERTEX
8
0
10
645.000000
20
733.000000
0
VERTEX
8
0
10
646.000000
20
734.000000
0
VERTEX
8
0
10
641.300000
20
748.100000
0
VERTEX
8
0
10
638.760000
20
753.820000
0
VERTEX
8
0
10
633.760000
20
760.820000
0
VERTEX
8
0
10
628.000000
20
768.000000
0
VERTEX
8
0
10
619.153846
20
774.230769
0
VERTEX
8
0
10
601.000000
20
784.000000
0
VERTEX
8
0
10
599.000000
20
784.000000
0
VERTEX
8
0
10
598.000000
20
783.000000
0
VERTEX
8
0
10
627.000000
20
759.000000
0
VERTEX
8
0
10
632.000000
20
754.000000
0
VERTEX
8
0
10
634.760000
20
749.820000
0
VERTEX
8
0
10
636.200000
20
747.100000
0
VERTEX
8
0
10
639.700000
20
738.900000
0
VERTEX
8
0
10
640.000000
20
737.000000
0
VERTEX
8
0
10
644.000000
20
733.000000
0
VERTEX
8
0
10
645.000000
20
733.000000
0
SEQEND
0
POLYLINE
8
0
6
CONTINUOUS
66
1
62
7
10
0.0
20
0.0
30
0.000000
0
VERTEX
8
0
10
79.000000
20
714.000000
0
VERTEX
8
0
10
81.000000
20
720.000000
0
VERTEX
8
0
10
81.000000
20
726.000000
0
VERTEX
8
0
10
77.800000
20
734.900000
0
VERTEX
8
0
10
77.200000
20
736.100000
0
VERTEX
8
0
10
73.000000
20
741.000000
0
VERTEX
8
0
10
72.180000
20
741.240000
0
VERTEX
8
0
10
69.000000
20
744.000000
0
VERTEX
8
0
10
68.000000
20
743.000000
0
VERTEX
8
0
10
69.615385
20
731.923077
0
VERTEX
8
0
10
72.200000
20
723.100000
0
VERTEX
8
0
10
72.800000
20
721.900000
0
VERTEX
8
0
10
74.245902
20
719.204918
0
VERTEX
8
0
10
79.000000
20
714.000000
0
SEQEND
0
POLYLINE
8
0
6
CONTINUOUS
66
1
62
7
10
0.0
20
0.0
30
0.000000
0
VERTEX
8
0
10
125.000000
20
703.000000
0
VERTEX
8
0
10
127.769231
20
707.153846
0
VERTEX
8
0
10
132.647059
20
716.088235
0
VERTEX
8
0
10
134.000000
20
723.000000
0
VERTEX
8
0
10
130.000000
20
728.000000
0
VERTEX
8
0
10
129.000000
20
728.000000
0
VERTEX
8
0
10
127.405405
20
723.932432
0
VERTEX
8
0
10
127.000000
20
719.000000
0
VERTEX
8
0
10
126.000000
20
718.000000
0
VERTEX
8
0
10
124.000000
20
717.000000
0
VERTEX
8
0
10
121.900000
20
717.800000
0
VERTEX
8
0
10
121.000000
20
718.000000
0
VERTEX
8
0
10
118.700000
20
722.900000
0
VERTEX
8
0
10
117.000000
20
728.000000
0
VERTEX
8
0
10
112.000000
20
732.000000
0
VERTEX
8
0
10
111.000000
20
732.000000
0
VERTEX
8
0
10
109.000000
20
727.000000
0
VERTEX
8
0
10
109.000000
20
723.000000
0
VERTEX
8
0
10
111.300000
20
717.100000
0
VERTEX
8
0
10
113.700000
20
709.900000
0
VERTEX
8
0
10
114.000000
20
708.000000
0
VERTEX
8
0
10
117.000000
20
705.000000
0
VERTEX
8
0
10
123.911765
20
703.647059
0
VERTEX
8
0
10
125.000000
20
703.000000
0
SEQEND
0
POLYLINE
8
0
6
CONTINUOUS
66
1
62
7
10
0.0
20
0.0
30
0.000000
0
VERTEX
8
0
10
430.000000
20
690.000000
0
VERTEX
8
0
10
430.500000
20
691.000000
0
VERTEX
8
0
10
426.000000
20
700.000000
0
VERTEX
8
0
10
417.000000
20
709.000000
0
VERTEX
8
0
10
393.846154
20
722.769231
0
VERTEX
8
0
10
381.100000
20
731.200000
0
VERTEX
8
0
10
380.000000
20
732.000000
0
VERTEX
8
0
10
379.000000
20
731.000000
0
VERTEX
8
0
10
379.615385
20
727.923077
0
VERTEX
8
0
10
380.000000
20
724.000000
0
VERTEX
8
0
10
383.820000
20
720.760000
0
VERTEX
8
0
10
389.100000
20
717.200000
0
VERTEX
8
0
10
412.000000
20
707.000000
0
VERTEX
8
0
10
420.754098
20
696.795082
0
VERTEX
8
0
10
421.000000
20
696.000000
0
VERTEX
8
0
10
425.900000
20
691.800000
0
VERTEX
8
0
10
430.000000
20
690.000000
0
SEQEND
0
POLYLINE
8
0
6
CONTINUOUS
66
1
62
7
10
0.0
20
0.0
30
0.000000
0
VERTEX
8
0
10
290.000000
20
689.000000
0
VERTEX
8
0
10
289.000000
20
695.000000
0
VERTEX
8
0
10
283.911765
20
697.647059
0
VERTEX
8
0
10
274.000000
20
699.000000
0
VERTEX
8
0
10
270.000000
20
703.000000
0
VERTEX
8
0
10
263.200000
20
716.100000
0
VERTEX
8
0
10
262.200000
20
718.100000
0
VERTEX
8
0
10
257.000000
20
728.000000
0
VERTEX
8
0
10
253.000000
20
732.000000
0
VERTEX
8
0
10
252.000000
20
731.000000
0
VERTEX
8
0
10
253.800000
20
724.900000
0
VERTEX
8
0
10
261.800000
20
707.900000
0
VERTEX
8
0
10
266.000000
20
701.000000
0
VERTEX
8
0
10
273.900000
20
694.800000
0
VERTEX
8
0
10
284.088235
20
690.352941
0
VERTEX
8
0
10
290.000000
20
689.000000
0
SEQEND
0
POLYLINE
8
0
6
CONTINUOUS
66
1
62
7
10
0.0
20
0.0
30
0.000000
0
VERTEX
8
0
10
377.000000
20
689.000000
0
VERTEX
8
0
10
386.100000
20
692.800000
0
VERTEX
8
0
10
390.000000
20
696.000000
0
VERTEX
8
0
10
391.000000
20
707.000000
0
VERTEX
8
0
10
390.000000
20
713.000000
0
VERTEX
8
0
10
387.100000
20
715.200000
0
VERTEX
8
0
10
386.000000
20
716.000000
0
VERTEX
8
0
10
381.800000
20
700.100000
0
VERTEX
8
0
10
380.000000
20
697.000000
0
VERTEX
8
0
10
371.000000
20
696.000000
0
VERTEX
8
0
10
368.100000
20
697.300000
0
VERTEX
8
0
10
365.100000
20
698.300000
0
VERTEX
8
0
10
355.211765
20
705.247059
0
VERTEX
8
0
10
346.100000
20
712.200000
0
VERTEX
8
0
10
343.000000
20
714.000000
0
VERTEX
8
0
10
337.000000
20
713.000000
0
VERTEX
8
0
10
336.000000
20
712.000000
0
VERTEX
8
0
10
359.900000
20
693.800000
0
VERTEX
8
0
10
361.900000
20
692.800000
0
VERTEX
8
0
10
367.076923
20
690.384615
0
VERTEX
8
0
10
377.000000
20
689.000000
0
SEQEND
0
POLYLINE
8
0
6
CONTINUOUS
66
1
62
7
10
0.0
20
0.0
30
0.000000
0
VERTEX
8
0
10
603.000000
20
688.000000
0
VERTEX
8
0
10
606.000000
20
691.000000
0
VERTEX
8
0
10
606.000000
20
692.000000
0
VERTEX
8
0
10
592.000000
20
706.000000
0
VERTEX
8
0
10
580.000000
20
712.000000
0
VERTEX
8
0
10
578.000000
20
709.000000
0
VERTEX
8
0
10
578.000000
20
708.000000
0
VERTEX
8
0
10
580.000000
20
706.000000
0
VERTEX
8
0
10
585.100000
20
704.200000
0
VERTEX
8
0
10
596.846154
20
691.769231
0
VERTEX
8
0
10
603.000000
20
688.000000
0
SEQEND
0
POLYLINE
8
0
6
CONTINUOUS
66
1
62
7
10
0.0
20
0.0
30
0.000000
0
VERTEX
8
0
10
625.000000
20
683.000000
0
VERTEX
8
0
10
626.000000
20
684.000000
0
VERTEX
8
0
10
624.300000
20
690.100000
0
VERTEX
8
0
10
622.000000
20
695.000000
0
VERTEX
8
0
10
615.000000
20
700.000000
0
VERTEX
8
0
10
613.000000
20
699.000000
0
VERTEX
8
0
10
613.800000
20
696.900000
0
VERTEX
8
0
10
618.000000
20
689.000000
0
VERTEX
8
0
10
625.000000
20
683.000000
0
SEQEND
0
POLYLINE
8
0
6
CONTINUOUS
66
1
62
7
10
0.0
20
0.0
30
0.000000
0
VERTEX
8
0
10
165.000000
20
680.000000
0
VERTEX
8
0
10
166.800000
20
683.100000
0
VERTEX
8
0
10
171.000000
20
697.000000
0
VERTEX
8
0
10
171.000000
20
708.000000
0
VERTEX
8
0
10
169.000000
20
711.000000
0
VERTEX
8
0
10
166.100000
20
713.200000
0
VERTEX
8
0
10
165.000000
20
714.000000
0
VERTEX
8
0
10
163.000000
20
713.000000
0
VERTEX
8
0
10
163.000000
20
712.000000
0
VERTEX
8
0
10
166.000000
20
704.000000
0
VERTEX
8
0
10
166.000000
20
698.000000
0
VERTEX
8
0
10
165.000000
20
696.000000
0
VERTEX
8
0
10
164.000000
20
695.000000
0
VERTEX
8
0
10
160.900000
20
694.800000
0
VERTEX
8
0
10
158.153846
20
696.230769
0
VERTEX
8
0
10
151.000000
20
700.000000
0
VERTEX
8
0
10
148.000000
20
699.000000
0
VERTEX
8
0
10
147.000000
20
698.000000
0
VERTEX
8
0
10
149.800000
20
690.900000
0
VERTEX
8
0
10
155.000000
20
684.000000
0
VERTEX
8
0
10
160.088235
20
681.352941
0
VERTEX
8
0
10
165.000000
20
680.000000
0
SEQEND
0
POLYLINE
8
0
6
CONTINUOUS
66
1
62
7
10
0.0
20
0.0
30
0.000000
0
VERTEX
8
0
10
329.000000
20
673.000000
0
VERTEX
8
0
10
328.535398
20
687.969027
0
VERTEX
8
0
10
326.700000
20
694.900000
0
VERTEX
8
0
10
326.200000
20
696.100000
0
VERTEX
8
0
10
318.000000
20
708.000000
0
VERTEX
8
0
10
312.000000
20
714.000000
0
VERTEX
8
0
10
311.000000
20
713.000000
0
VERTEX
8
0
10
311.000000
20
707.000000
0
VERTEX
8
0
10
313.240000
20
704.180000
0
VERTEX
8
0
10
318.760000
20
696.820000
0
VERTEX
8
0
10
321.554455
20
689.955446
0
VERTEX
8
0
10
321.750000
20
680.250000
0
VERTEX
8
0
10
303.000000
20
682.000000
0
VERTEX
8
0
10
301.000000
20
681.000000
0
VERTEX
8
0
10
300.000000
20
680.000000
0
VERTEX
8
0
10
300.000000
20
678.000000
0
VERTEX
8
0
10
302.000000
20
676.000000
0
VERTEX
8
0
10
310.024862
20
673.472376
0
VERTEX
8
0
10
329.000000
20
673.000000
0
SEQEND
0
POLYLINE
8
0
6
CONTINUOUS
66
1
62
7
10
0.0
20
0.0
30
0.000000
0
VERTEX
8
0
10
83.000000
20
664.000000
0
VERTEX
8
0
10
84.000000
20
665.000000
0
VERTEX
8
0
10
81.200000
20
675.100000
0
VERTEX
8
0
10
76.000000
20
683.000000
0
VERTEX
8
0
10
73.000000
20
684.000000
0
VERTEX
8
0
10
70.000000
20
687.000000
0
VERTEX
8
0
10
68.647059
20
694.911765
0
VERTEX
8
0
10
64.000000
20
702.000000
0
VERTEX
8
0
10
63.000000
20
701.000000
0
VERTEX
8
0
10
63.000000
20
691.000000
0
VERTEX
8
0
10
65.352941
20
681.088235
0
VERTEX
8
0
10
65.800000
20
679.900000
0
VERTEX
8
0
10
69.000000
20
673.000000
0
VERTEX
8
0
10
75.000000
20
667.000000
0
VERTEX
8
0
10
83.000000
20
664.000000
0
SEQEND
0
POLYLINE
8
0
6
CONTINUOUS
66
1
62
7
10
0.0
20
0.0
30
0.000000
0
VERTEX
8
0
10
591.000000
20
663.000000
0
VERTEX
8
0
10
591.400000
20
663.700000
0
VERTEX
8
0
10
589.240000
20
667.180000
0
VERTEX
8
0
10
568.751131
20
695.773756
0
VERTEX
8
0
10
559.248869
20
706.226244
0
VERTEX
8
0
10
542.000000
20
724.000000
0
VERTEX
8
0
10
533.820000
20
729.760000
0
VERTEX
8
0
10
525.820000
20
735.760000
0
VERTEX
8
0
10
510.900000
20
743.800000
0
VERTEX
8
0
10
506.900000
20
745.800000
0
VERTEX
8
0
10
500.000000
20
748.000000
0
VERTEX
8
0
10
499.250000
20
747.750000
0
VERTEX
8
0
10
500.000000
20
743.000000
0
VERTEX
8
0
10
502.000000
20
741.000000
0
VERTEX
8
0
10
511.100000
20
737.200000
0
VERTEX
8
0
10
519.180000
20
732.240000
0
VERTEX
8
0
10
541.000000
20
715.000000
0
VERTEX
8
0
10
554.000000
20
702.000000
0
VERTEX
8
0
10
560.756098
20
692.804878
0
VERTEX
8
0
10
561.245902
20
692.204918
0
VERTEX
8
0
10
582.000000
20
668.000000
0
VERTEX
8
0
10
591.000000
20
663.000000
0
SEQEND
0
POLYLINE
8
0
6
CONTINUOUS
66
1
62
7
10
0.0
20
0.0
30
0.000000
0
VERTEX
8
0
10
111.000000
20
605.000000
0
VERTEX
8
0
10
111.800000
20
606.100000
0
VERTEX
8
0
10
116.000000
20
617.000000
0
VERTEX
8
0
10
115.000000
20
619.000000
0
VERTEX
8
0
10
112.000000
20
622.000000
0
VERTEX
8
0
10
111.000000
20
622.000000
0
VERTEX
8
0
10
109.800000
20
620.100000
0
VERTEX
8
0
10
106.000000
20
614.000000
0
VERTEX
8
0
10
103.000000
20
614.000000
0
VERTEX
8
0
10
97.000000
20
620.000000
0
VERTEX
8
0
10
97.000000
20
621.000000
0
VERTEX
8
0
10
94.000000
20
624.000000
0
VERTEX
8
0
10
85.900000
20
627.800000
0
VERTEX
8
0
10
84.250000
20
627.750000
0
VERTEX
8
0
10
85.300000
20
623.100000
0
VERTEX
8
0
10
85.700000
20
621.900000
0
VERTEX
8
0
10
90.000000
20
612.000000
0
VERTEX
8
0
10
92.820000
20
609.760000
0
VERTEX
8
0
10
98.076923
20
606.384615
0
VERTEX
8
0
10
111.000000
20
605.000000
0
SEQEND
0
POLYLINE
8
0
6
CONTINUOUS
66
1
62
7
10
0.0
20
0.0
30
0.000000
0
VERTEX
8
0
10
502.000000
20
595.000000
0
VERTEX
8
0
10
503.000000
20
596.000000
0
VERTEX
8
0
10
498.200000
20
606.100000
0
VERTEX
8
0
10
483.769231
20
633.846154
0
VERTEX
8
0
10
481.760000
20
636.820000
0
VERTEX
8
0
10
473.200000
20
649.100000
0
VERTEX
8
0
10
463.000000
20
660.000000
0
VERTEX
8
0
10
458.820000
20
662.760000
0
VERTEX
8
0
10
458.153846
20
663.230769
0
VERTEX
8
0
10
456.000000
20
665.000000
0
VERTEX
8
0
10
455.000000
20
664.000000
0
VERTEX
8
0
10
455.800000
20
661.900000
0
VERTEX
8
0
10
457.769231
20
658.846154
0
VERTEX
8
0
10
472.752941
20
639.788235
0
VERTEX
8
0
10
481.760000
20
627.820000
0
VERTEX
8
0
10
485.300000
20
621.100000
0
VERTEX
8
0
10
489.300000
20
607.100000
0
VERTEX
8
0
10
494.000000
20
599.000000
0
VERTEX
8
0
10
502.000000
20
595.000000
0
SEQEND
0
POLYLINE
8
0
6
CONTINUOUS
66
1
62
7
10
0.0
20
0.0
30
0.000000
0
VERTEX
8
0
10
523.000000
20
580.000000
0
VERTEX
8
0
10
524.067568
20
580.594595
0
VERTEX
8
0
10
547.000000
20
586.000000
0
VERTEX
8
0
10
549.000000
20
588.000000
0
VERTEX
8
0
10
548.430769
20
598.053846
0
VERTEX
8
0
10
547.569231
20
604.946154
0
VERTEX
8
0
10
542.800000
20
619.900000
0
VERTEX
8
0
10
542.300000
20
621.100000
0
VERTEX
8
0
10
537.769231
20
631.846154
0
VERTEX
8
0
10
536.230769
20
634.153846
0
VERTEX
8
0
10
529.754098
20
643.795082
0
VERTEX
8
0
10
524.754098
20
649.795082
0
VERTEX
8
0
10
509.000000
20
669.000000
0
VERTEX
8
0
10
508.000000
20
668.000000
0
VERTEX
8
0
10
508.000000
20
663.000000
0
VERTEX
8
0
10
521.240000
20
646.180000
0
VERTEX
8
0
10
523.760000
20
642.820000
0
VERTEX
8
0
10
528.800000
20
633.900000
0
VERTEX
8
0
10
532.800000
20
625.900000
0
VERTEX
8
0
10
540.300000
20
608.100000
0
VERTEX
8
0
10
541.405405
20
602.067568
0
VERTEX
8
0
10
541.750000
20
592.250000
0
VERTEX
8
0
10
535.000000
20
591.000000
0
VERTEX
8
0
10
527.923077
20
591.615385
0
VERTEX
8
0
10
524.076923
20
592.384615
0
VERTEX
8
0
10
517.180000
20
595.240000
0
VERTEX
8
0
10
514.000000
20
598.000000
0
VERTEX
8
0
10
513.000000
20
596.000000
0
VERTEX
8
0
10
515.800000
20
588.900000
0
VERTEX
8
0
10
517.000000
20
586.000000
0
VERTEX
8
0
10
516.000000
20
585.000000
0
VERTEX
8
0
10
507.250000
20
585.750000
0
VERTEX
8
0
10
506.000000
20
583.000000
0
VERTEX
8
0
10
507.000000
20
582.000000
0
VERTEX
8
0
10
517.060000
20
580.420000
0
VERTEX
8
0
10
523.000000
20
580.000000
0
SEQEND
0
POLYLINE
8
0
6
CONTINUOUS
66
1
62
7
10
0.0
20
0.0
30
0.000000
0
VERTEX
8
0
10
170.000000
20
573.000000
0
VERTEX
8
0
10
176.000000
20
576.000000
0
VERTEX
8
0
10
177.200000
20
577.900000
0
VERTEX
8
0
10
178.300000
20
580.900000
0
VERTEX
8
0
10
179.000000
20
585.000000
0
VERTEX
8
0
10
177.647059
20
588.911765
0
VERTEX
8
0
10
175.000000
20
596.000000
0
VERTEX
8
0
10
170.000000
20
596.000000
0
VERTEX
8
0
10
169.000000
20
595.000000
0
VERTEX
8
0
10
169.647059
20
591.911765
0
VERTEX
8
0
10
171.000000
20
588.000000
0
VERTEX
8
0
10
169.352941
20
578.911765
0
VERTEX
8
0
10
168.000000
20
575.000000
0
VERTEX
8
0
10
169.000000
20
573.000000
0
VERTEX
8
0
10
170.000000
20
573.000000
0
SEQEND
0
POLYLINE
8
0
6
CONTINUOUS
66
1
62
7
10
0.0
20
0.0
30
0.000000
0
VERTEX
8
0
10
367.000000
20
572.000000
0
VERTEX
8
0
10
372.000000
20
576.000000
0
VERTEX
8
0
10
360.153846
20
582.230769
0
VERTEX
8
0
10
355.900000
20
584.800000
0
VERTEX
8
0
10
348.000000
20
589.000000
0
VERTEX
8
0
10
347.000000
20
588.000000
0
VERTEX
8
0
10
349.800000
20
581.900000
0
VERTEX
8
0
10
350.000000
20
581.000000
0
VERTEX
8
0
10
352.820000
20
578.760000
0
VERTEX
8
0
10
356.846154
20
575.769231
0
VERTEX
8
0
10
361.088235
20
573.352941
0
VERTEX
8
0
10
367.000000
20
572.000000
0
SEQEND
0
POLYLINE
8
0
6
CONTINUOUS
66
1
62
7
10
0.0
20
0.0
30
0.000000
0
VERTEX
8
0
10
159.000000
20
571.000000
0
VERTEX
8
0
10
164.000000
20
574.000000
0
VERTEX
8
0
10
161.100000
20
575.300000
0
VERTEX
8
0
10
159.000000
20
576.000000
0
VERTEX
8
0
10
151.000000
20
584.000000
0
VERTEX
8
0
10
151.000000
20
585.000000
0
VERTEX
8
0
10
142.000000
20
592.000000
0
VERTEX
8
0
10
141.000000
20
591.000000
0
VERTEX
8
0
10
141.700000
20
587.900000
0
VERTEX
8
0
10
142.700000
20
584.900000
0
VERTEX
8
0
10
144.240000
20
581.180000
0
VERTEX
8
0
10
147.000000
20
577.000000
0
VERTEX
8
0
10
150.900000
20
573.800000
0
VERTEX
8
0
10
159.000000
20
571.000000
0
SEQEND
0
POLYLINE
8
0
6
CONTINUOUS
66
1
62
7
10
0.0
20
0.0
30
0.000000
0
VERTEX
8
0
10
322.000000
20
571.000000
0
VERTEX
8
0
10
323.088235
20
571.647059
0
VERTEX
8
0
10
335.000000
20
577.000000
0
VERTEX
8
0
10
337.000000
20
579.000000
0
VERTEX
8
0
10
336.000000
20
581.000000
0
VERTEX
8
0
10
334.000000
20
582.000000
0
VERTEX
8
0
10
314.076923
20
578.615385
0
VERTEX
8
0
10
311.000000
20
578.000000
0
VERTEX
8
0
10
274.153846
20
604.230769
0
VERTEX
8
0
10
271.846154
20
605.769231
0
VERTEX
8
0
10
269.000000
20
607.000000
0
VERTEX
8
0
10
255.000000
20
621.000000
0
VERTEX
8
0
10
243.200000
20
640.100000
0
VERTEX
8
0
10
242.800000
20
640.900000
0
VERTEX
8
0
10
241.000000
20
648.000000
0
VERTEX
8
0
10
239.000000
20
650.000000
0
VERTEX
8
0
10
234.000000
20
651.000000
0
VERTEX
8
0
10
233.000000
20
650.000000
0
VERTEX
8
0
10
234.300000
20
647.100000
0
VERTEX
8
0
10
236.300000
20
641.100000
0
VERTEX
8
0
10
243.200000
20
627.100000
0
VERTEX
8
0
10
243.800000
20
625.900000
0
VERTEX
8
0
10
247.000000
20
619.000000
0
VERTEX
8
0
10
249.000000
20
617.000000
0
VERTEX
8
0
10
255.769968
20
613.750799
0
VERTEX
8
0
10
268.230032
20
602.249201
0
VERTEX
8
0
10
293.195122
20
583.243902
0
VERTEX
8
0
10
293.804878
20
582.756098
0
VERTEX
8
0
10
300.100000
20
578.300000
0
VERTEX
8
0
10
303.900000
20
576.800000
0
VERTEX
8
0
10
313.088235
20
572.352941
0
VERTEX
8
0
10
322.000000
20
571.000000
0
SEQEND
0
POLYLINE
8
0
6
CONTINUOUS
66
1
62
7
10
0.0
20
0.0
30
0.000000
0
VERTEX
8
0
10
138.000000
20
570.000000
0
VERTEX
8
0
10
142.000000
20
571.000000
0
VERTEX
8
0
10
143.000000
20
572.000000
0
VERTEX
8
0
10
140.760000
20
574.820000
0
VERTEX
8
0
10
132.000000
20
586.000000
0
VERTEX
8
0
10
121.000000
20
594.000000
0
VERTEX
8
0
10
120.000000
20
593.000000
0
VERTEX
8
0
10
120.000000
20
588.000000
0
VERTEX
8
0
10
122.300000
20
581.100000
0
VERTEX
8
0
10
122.800000
20
579.900000
0
VERTEX
8
0
10
127.000000
20
573.000000
0
VERTEX
8
0
10
127.846154
20
572.769231
0
VERTEX
8
0
10
134.076923
20
570.384615
0
VERTEX
8
0
10
138.000000
20
570.000000
0
SEQEND
0
POLYLINE
8
0
6
CONTINUOUS
66
1
62
7
10
0.0
20
0.0
30
0.000000
0
VERTEX
8
0
10
421.000000
20
569.000000
0
VERTEX
8
0
10
426.000000
20
571.000000
0
VERTEX
8
0
10
428.240000
20
573.820000
0
VERTEX
8
0
10
431.000000
20
577.000000
0
VERTEX
8
0
10
430.000000
20
578.000000
0
VERTEX
8
0
10
426.946154
20
577.430769
0
VERTEX
8
0
10
415.000000
20
576.000000
0
VERTEX
8
0
10
407.692308
20
581.538462
0
VERTEX
8
0
10
390.900000
20
584.800000
0
VERTEX
8
0
10
388.900000
20
585.800000
0
VERTEX
8
0
10
380.000000
20
594.000000
0
VERTEX
8
0
10
377.200000
20
599.100000
0
VERTEX
8
0
10
365.000000
20
619.000000
0
VERTEX
8
0
10
358.000000
20
625.000000
0
VERTEX
8
0
10
357.000000
20
625.000000
0
VERTEX
8
0
10
356.000000
20
624.000000
0
VERTEX
8
0
10
358.800000
20
618.900000
0
VERTEX
8
0
10
366.240000
20
607.180000
0
VERTEX
8
0
10
373.240000
20
597.180000
0
VERTEX
8
0
10
386.000000
20
580.000000
0
VERTEX
8
0
10
388.911765
20
579.647059
0
VERTEX
8
0
10
415.060000
20
569.420000
0
VERTEX
8
0
10
421.000000
20
569.000000
0
SEQEND
0
POLYLINE
8
0
6
CONTINUOUS
66
1
62
7
10
0.0
20
0.0
30
0.000000
0
VERTEX
8
0
10
461.000000
20
569.000000
0
VERTEX
8
0
10
467.900000
20
571.300000
0
VERTEX
8
0
10
477.194595
20
576.767568
0
VERTEX
8
0
10
493.000000
20
578.000000
0
VERTEX
8
0
10
497.000000
20
582.000000
0
VERTEX
8
0
10
496.000000
20
584.000000
0
VERTEX
8
0
10
495.100000
20
584.200000
0
VERTEX
8
0
10
477.820000
20
588.760000
0
VERTEX
8
0
10
475.000000
20
591.000000
0
VERTEX
8
0
10
472.800000
20
588.100000
0
VERTEX
8
0
10
472.352941
20
586.911765
0
VERTEX
8
0
10
471.000000
20
582.000000
0
VERTEX
8
0
10
468.000000
20
579.000000
0
VERTEX
8
0
10
461.000000
20
578.000000
0
VERTEX
8
0
10
456.076923
20
579.384615
0
VERTEX
8
0
10
448.153846
20
583.230769
0
VERTEX
8
0
10
427.100000
20
601.300000
0
VERTEX
8
0
10
420.000000
20
603.000000
0
VERTEX
8
0
10
419.000000
20
602.000000
0
VERTEX
8
0
10
420.769231
20
598.846154
0
VERTEX
8
0
10
421.243902
20
598.195122
0
VERTEX
8
0
10
437.000000
20
579.000000
0
VERTEX
8
0
10
444.846154
20
573.769231
0
VERTEX
8
0
10
450.088235
20
571.352941
0
VERTEX
8
0
10
461.000000
20
569.000000
0
SEQEND
0
POLYLINE
8
0
6
CONTINUOUS
66
1
62
7
10
0.0
20
0.0
30
0.000000
0
VERTEX
8
0
10
614.000000
20
530.000000
0
VERTEX
8
0
10
615.000000
20
531.000000
0
VERTEX
8
0
10
612.000000
20
537.000000
0
VERTEX
8
0
10
603.100000
20
545.200000
0
VERTEX
8
0
10
602.000000
20
546.000000
0
VERTEX
8
0
10
596.000000
20
546.000000
0
VERTEX
8
0
10
595.000000
20
545.000000
0
VERTEX
8
0
10
604.000000
20
536.000000
0
VERTEX
8
0
10
611.100000
20
531.300000
0
VERTEX
8
0
10
614.000000
20
530.000000
0
SEQEND
0
POLYLINE
8
0
6
CONTINUOUS
66
1
62
7
10
0.0
20
0.0
30
0.000000
0
VERTEX
8
0
10
610.000000
20
495.000000
0
VERTEX
8
0
10
611.000000
20
496.000000
0
VERTEX
8
0
10
609.000000
20
504.000000
0
VERTEX
8
0
10
606.000000
20
507.000000
0
VERTEX
8
0
10
598.900000
20
511.800000
0
VERTEX
8
0
10
598.100000
20
512.200000
0
VERTEX
8
0
10
595.000000
20
514.000000
0
VERTEX
8
0
10
589.247059
20
521.211765
0
VERTEX
8
0
10
587.200000
20
525.100000
0
VERTEX
8
0
10
586.200000
20
527.100000
0
VERTEX
8
0
10
577.754098
20
540.795082
0
VERTEX
8
0
10
569.000000
20
551.000000
0
VERTEX
8
0
10
563.900000
20
552.700000
0
VERTEX
8
0
10
562.100000
20
553.300000
0
VERTEX
8
0
10
558.000000
20
554.000000
0
VERTEX
8
0
10
557.000000
20
553.000000
0
VERTEX
8
0
10
567.000000
20
544.000000
0
VERTEX
8
0
10
596.000000
20
504.000000
0
VERTEX
8
0
10
599.000000
20
501.000000
0
VERTEX
8
0
10
608.100000
20
495.300000
0
VERTEX
8
0
10
610.000000
20
495.000000
0
SEQEND
0
POLYLINE
8
0
6
CONTINUOUS
66
1
62
7
10
0.0
20
0.0
30
0.000000
0
VERTEX
8
0
10
546.000000
20
483.000000
0
VERTEX
8
0
10
549.000000
20
485.000000
0
VERTEX
8
0
10
546.230769
20
490.153846
0
VERTEX
8
0
10
543.240000
20
494.180000
0
VERTEX
8
0
10
527.000000
20
517.000000
0
VERTEX
8
0
10
513.788235
20
528.752941
0
VERTEX
8
0
10
507.900000
20
532.700000
0
VERTEX
8
0
10
504.911765
20
533.647059
0
VERTEX
8
0
10
499.000000
20
535.000000
0
VERTEX
8
0
10
498.000000
20
534.000000
0
VERTEX
8
0
10
527.000000
20
511.000000
0
VERTEX
8
0
10
530.000000
20
508.000000
0
VERTEX
8
0
10
532.800000
20
502.900000
0
VERTEX
8
0
10
534.647059
20
498.911765
0
VERTEX
8
0
10
537.000000
20
489.000000
0
VERTEX
8
0
10
542.000000
20
484.000000
0
VERTEX
8
0
10
544.100000
20
483.300000
0
VERTEX
8
0
10
546.000000
20
483.000000
0
SEQEND
0
POLYLINE
8
0
6
CONTINUOUS
66
1
62
7
10
0.0
20
0.0
30
0.000000
0
VERTEX
8
0
10
228.000000
20
467.000000
0
VERTEX
8
0
10
229.000000
20
468.000000
0
VERTEX
8
0
10
229.000000
20
472.000000
0
VERTEX
8
0
10
225.000000
20
480.000000
0
VERTEX
8
0
10
221.000000
20
484.000000
0
VERTEX
8
0
10
210.900000
20
488.800000
0
VERTEX
8
0
10
202.100000
20
492.300000
0
VERTEX
8
0
10
199.000000
20
494.000000
0
VERTEX
8
0
10
196.000000
20
494.000000
0
VERTEX
8
0
10
195.000000
20
493.000000
0
VERTEX
8
0
10
204.240000
20
480.180000
0
VERTEX
8
0
10
207.000000
20
476.000000
0
VERTEX
8
0
10
209.000000
20
474.000000
0
VERTEX
8
0
10
212.900000
20
475.200000
0
VERTEX
8
0
10
214.000000
20
476.000000
0
VERTEX
8
0
10
218.100000
20
474.200000
0
VERTEX
8
0
10
228.000000
20
467.000000
0
SEQEND
0
POLYLINE
8
0
6
CONTINUOUS
66
1
62
7
10
0.0
20
0.0
30
0.000000
0
VERTEX
8
0
10
587.000000
20
464.000000
0
VERTEX
8
0
10
590.000000
20
466.000000
0
VERTEX
8
0
10
588.000000
20
470.000000
0
VERTEX
8
0
10
583.900000
20
472.800000
0
VERTEX
8
0
10
581.000000
20
474.000000
0
VERTEX
8
0
10
579.000000
20
471.000000
0
VERTEX
8
0
10
580.000000
20
467.000000
0
VERTEX
8
0
10
582.000000
20
465.000000
0
VERTEX
8
0
10
585.100000
20
464.300000
0
VERTEX
8
0
10
587.000000
20
464.000000
0
SEQEND
0
POLYLINE
8
0
6
CONTINUOUS
66
1
62
7
10
0.0
20
0.0
30
0.000000
0
VERTEX
8
0
10
287.000000
20
449.000000
0
VERTEX
8
0
10
287.500000
20
450.000000
0
VERTEX
8
0
10
276.800000
20
467.900000
0
VERTEX
8
0
10
276.200000
20
469.100000
0
VERTEX
8
0
10
274.000000
20
474.000000
0
VERTEX
8
0
10
273.100000
20
473.800000
0
VERTEX
8
0
10
266.000000
20
471.000000
0
VERTEX
8
0
10
257.000000
20
471.000000
0
VERTEX
8
0
10
254.100000
20
472.300000
0
VERTEX
8
0
10
245.900000
20
475.800000
0
VERTEX
8
0
10
233.000000
20
484.000000
0
VERTEX
8
0
10
232.000000
20
483.000000
0
VERTEX
8
0
10
235.000000
20
477.000000
0
VERTEX
8
0
10
245.000000
20
467.000000
0
VERTEX
8
0
10
247.100000
20
466.200000
0
VERTEX
8
0
10
257.000000
20
462.000000
0
VERTEX
8
0
10
266.000000
20
462.000000
0
VERTEX
8
0
10
267.100000
20
462.700000
0
VERTEX
8
0
10
272.000000
20
464.000000
0
VERTEX
8
0
10
275.000000
20
461.000000
0
VERTEX
8
0
10
281.000000
20
451.000000
0
VERTEX
8
0
10
287.000000
20
449.000000
0
SEQEND
0
POLYLINE
8
0
6
CONTINUOUS
66
1
62
7
10
0.0
20
0.0
30
0.000000
0
VERTEX
8
0
10
563.000000
20
435.000000
0
VERTEX
8
0
10
570.000000
20
438.000000
0
VERTEX
8
0
10
571.200000
20
439.900000
0
VERTEX
8
0
10
573.647059
20
447.088235
0
VERTEX
8
0
10
574.000000
20
450.000000
0
VERTEX
8
0
10
575.000000
20
451.000000
0
VERTEX
8
0
10
581.000000
20
452.000000
0
VERTEX
8
0
10
585.000000
20
459.000000
0
VERTEX
8
0
10
573.000000
20
462.000000
0
VERTEX
8
0
10
570.800000
20
459.100000
0
VERTEX
8
0
10
569.352941
20
454.911765
0
VERTEX
8
0
10
568.000000
20
450.000000
0
VERTEX
8
0
10
567.000000
20
449.000000
0
VERTEX
8
0
10
565.100000
20
450.200000
0
VERTEX
8
0
10
564.000000
20
451.000000
0
VERTEX
8
0
10
554.000000
20
447.000000
0
VERTEX
8
0
10
553.000000
20
446.000000
0
VERTEX
8
0
10
554.300000
20
443.100000
0
VERTEX
8
0
10
554.647059
20
441.911765
0
VERTEX
8
0
10
556.000000
20
437.000000
0
VERTEX
8
0
10
559.076923
20
435.384615
0
VERTEX
8
0
10
563.000000
20
435.000000
0
SEQEND
0
POLYLINE
8
0
6
CONTINUOUS
66
1
62
7
10
0.0
20
0.0
30
0.000000
0
VERTEX
8
0
10
320.000000
20
430.000000
0
VERTEX
8
0
10
321.000000
20
431.000000
0
VERTEX
8
0
10
314.000000
20
436.000000
0
VERTEX
8
0
10
305.756098
20
446.804878
0
VERTEX
8
0
10
302.243902
20
451.195122
0
VERTEX
8
0
10
290.000000
20
464.000000
0
VERTEX
8
0
10
289.000000
20
463.000000
0
VERTEX
8
0
10
295.769231
20
450.846154
0
VERTEX
8
0
10
301.000000
20
442.000000
0
VERTEX
8
0
10
309.846154
20
433.769231
0
VERTEX
8
0
10
312.153846
20
432.230769
0
VERTEX
8
0
10
318.100000
20
430.300000
0
VERTEX
8
0
10
320.000000
20
430.000000
0
SEQEND
0
POLYLINE
8
0
6
CONTINUOUS
66
1
62
7
10
0.0
20
0.0
30
0.000000
0
VERTEX
8
0
10
342.000000
20
415.000000
0
VERTEX
8
0
10
343.000000
20
416.000000
0
VERTEX
8
0
10
335.200000
20
430.100000
0
VERTEX
8
0
10
335.000000
20
431.000000
0
VERTEX
8
0
10
316.153846
20
449.230769
0
VERTEX
8
0
10
314.000000
20
451.000000
0
VERTEX
8
0
10
313.000000
20
449.000000
0
VERTEX
8
0
10
313.800000
20
447.900000
0
VERTEX
8
0
10
320.249315
20
439.231507
0
VERTEX
8
0
10
342.000000
20
415.000000
0
SEQEND
0
POLYLINE
8
0
6
CONTINUOUS
66
1
62
7
10
0.0
20
0.0
30
0.000000
0
VERTEX
8
0
10
542.000000
20
412.000000
0
VERTEX
8
0
10
543.088235
20
412.647059
0
VERTEX
8
0
10
549.000000
20
415.000000
0
VERTEX
8
0
10
551.000000
20
417.000000
0
VERTEX
8
0
10
549.800000
20
420.900000
0
VERTEX
8
0
10
549.000000
20
423.000000
0
VERTEX
8
0
10
543.153846
20
428.230769
0
VERTEX
8
0
10
541.000000
20
430.000000
0
VERTEX
8
0
10
536.735294
20
427.441176
0
VERTEX
8
0
10
535.100000
20
426.700000
0
VERTEX
8
0
10
531.000000
20
425.000000
0
VERTEX
8
0
10
531.000000
20
415.000000
0
VERTEX
8
0
10
532.000000
20
414.000000
0
VERTEX
8
0
10
542.000000
20
412.000000
0
SEQEND
0
POLYLINE
8
0
6
CONTINUOUS
66
1
62
7
10
0.0
20
0.0
30
0.000000
0
VERTEX
8
0
10
401.000000
20
394.000000
0
VERTEX
8
0
10
408.000000
20
399.000000
0
VERTEX
8
0
10
408.000000
20
409.000000
0
VERTEX
8
0
10
404.800000
20
414.900000
0
VERTEX
8
0
10
404.000000
20
417.000000
0
VERTEX
8
0
10
400.180000
20
420.240000
0
VERTEX
8
0
10
397.000000
20
423.000000
0
VERTEX
8
0
10
396.000000
20
423.000000
0
VERTEX
8
0
10
395.000000
20
422.000000
0
VERTEX
8
0
10
398.200000
20
415.100000
0
VERTEX
8
0
10
402.000000
20
408.000000
0
VERTEX
8
0
10
402.000000
20
402.000000
0
VERTEX
8
0
10
400.000000
20
397.000000
0
VERTEX
8
0
10
400.000000
20
395.000000
0
VERTEX
8
0
10
401.000000
20
394.000000
0
SEQEND
0
POLYLINE
8
0
6
CONTINUOUS
66
1
62
7
10
0.0
20
0.0
30
0.000000
0
VERTEX
8
0
10
395.000000
20
384.000000
0
VERTEX
8
0
10
396.000000
20
386.000000
0
VERTEX
8
0
10
391.760000
20
391.820000
0
VERTEX
8
0
10
389.000000
20
396.000000
0
VERTEX
8
0
10
376.180000
20
406.240000
0
VERTEX
8
0
10
373.000000
20
409.000000
0
VERTEX
8
0
10
372.000000
20
408.000000
0
VERTEX
8
0
10
375.000000
20
403.000000
0
VERTEX
8
0
10
395.000000
20
384.000000
0
SEQEND
0
POLYLINE
8
0
6
CONTINUOUS
66
1
62
7
10
0.0
20
0.0
30
0.000000
0
VERTEX
8
0
10
504.000000
20
378.000000
0
VERTEX
8
0
10
510.100000
20
379.700000
0
VERTEX
8
0
10
524.100000
20
385.800000
0
VERTEX
8
0
10
526.846154
20
387.230769
0
VERTEX
8
0
10
535.000000
20
393.000000
0
VERTEX
8
0
10
535.000000
20
394.000000
0
VERTEX
8
0
10
531.100000
20
396.200000
0
VERTEX
8
0
10
516.000000
20
408.000000
0
VERTEX
8
0
10
505.800000
20
395.100000
0
VERTEX
8
0
10
504.000000
20
392.000000
0
VERTEX
8
0
10
500.000000
20
394.000000
0
VERTEX
8
0
10
496.900000
20
393.200000
0
VERTEX
8
0
10
494.900000
20
392.300000
0
VERTEX
8
0
10
489.000000
20
390.000000
0
VERTEX
8
0
10
487.180000
20
391.240000
0
VERTEX
8
0
10
480.793103
20
395.482759
0
VERTEX
8
0
10
477.000000
20
397.000000
0
VERTEX
8
0
10
470.000000
20
396.000000
0
VERTEX
8
0
10
468.000000
20
394.000000
0
VERTEX
8
0
10
472.245902
20
389.204918
0
VERTEX
8
0
10
479.000000
20
381.000000
0
VERTEX
8
0
10
485.000000
20
380.000000
0
VERTEX
8
0
10
487.800000
20
381.400000
0
VERTEX
8
0
10
490.000000
20
382.000000
0
VERTEX
8
0
10
501.088235
20
378.352941
0
VERTEX
8
0
10
504.000000
20
378.000000
0
SEQEND
0
POLYLINE
8
0
6
CONTINUOUS
66
1
62
7
10
0.0
20
0.0
30
0.000000
0
VERTEX
8
0
10
370.000000
20
346.000000
0
VERTEX
8
0
10
372.000000
20
348.000000
0
VERTEX
8
0
10
367.000000
20
353.000000
0
VERTEX
8
0
10
366.000000
20
352.000000
0
VERTEX
8
0
10
366.800000
20
349.900000
0
VERTEX
8
0
10
370.000000
20
346.000000
0
SEQEND
0
POLYLINE
8
0
6
CONTINUOUS
66
1
62
7
10
0.0
20
0.0
30
0.000000
0
VERTEX
8
0
10
326.000000
20
306.000000
0
VERTEX
8
0
10
328.200000
20
308.900000
0
VERTEX
8
0
10
330.569231
20
317.053846
0
VERTEX
8
0
10
331.430769
20
323.946154
0
VERTEX
8
0
10
332.000000
20
340.000000
0
VERTEX
8
0
10
331.000000
20
341.000000
0
VERTEX
8
0
10
332.000000
20
342.000000
0
VERTEX
8
0
10
335.800000
20
342.600000
0
VERTEX
8
0
10
338.820000
20
344.240000
0
VERTEX
8
0
10
342.000000
20
347.000000
0
VERTEX
8
0
10
344.000000
20
346.000000
0
VERTEX
8
0
10
344.000000
20
345.000000
0
VERTEX
8
0
10
346.900000
20
342.800000
0
VERTEX
8
0
10
348.000000
20
342.000000
0
VERTEX
8
0
10
349.000000
20
343.000000
0
VERTEX
8
0
10
349.000000
20
348.000000
0
VERTEX
8
0
10
344.000000
20
358.000000
0
VERTEX
8
0
10
341.000000
20
361.000000
0
VERTEX
8
0
10
334.900000
20
363.800000
0
VERTEX
8
0
10
317.911765
20
376.647059
0
VERTEX
8
0
10
285.000000
20
385.000000
0
VERTEX
8
0
10
279.752941
20
390.788235
0
VERTEX
8
0
10
269.000000
20
404.000000
0
VERTEX
8
0
10
267.000000
20
405.000000
0
VERTEX
8
0
10
265.000000
20
405.000000
0
VERTEX
8
0
10
259.000000
20
398.000000
0
VERTEX
8
0
10
258.000000
20
398.000000
0
VERTEX
8
0
10
256.000000
20
400.000000
0
VERTEX
8
0
10
256.000000
20
401.000000
0
VERTEX
8
0
10
253.000000
20
404.000000
0
VERTEX
8
0
10
249.940000
20
404.580000
0
VERTEX
8
0
10
244.000000
20
405.000000
0
VERTEX
8
0
10
240.000000
20
411.000000
0
VERTEX
8
0
10
238.000000
20
412.000000
0
VERTEX
8
0
10
234.900000
20
411.300000
0
VERTEX
8
0
10
232.000000
20
410.000000
0
VERTEX
8
0
10
216.000000
20
429.000000
0
VERTEX
8
0
10
211.000000
20
432.000000
0
VERTEX
8
0
10
210.000000
20
431.000000
0
VERTEX
8
0
10
215.760000
20
423.820000
0
VERTEX
8
0
10
221.800000
20
411.900000
0
VERTEX
8
0
10
227.800000
20
398.900000
0
VERTEX
8
0
10
240.000000
20
374.000000
0
VERTEX
8
0
10
249.000000
20
365.000000
0
VERTEX
8
0
10
259.923077
20
363.615385
0
VERTEX
8
0
10
262.000000
20
363.000000
0
VERTEX
8
0
10
266.240000
20
358.180000
0
VERTEX
8
0
10
268.760000
20
354.820000
0
VERTEX
8
0
10
277.000000
20
345.000000
0
VERTEX
8
0
10
289.100000
20
338.200000
0
VERTEX
8
0
10
294.900000
20
335.700000
0
VERTEX
8
0
10
315.000000
20
331.000000
0
VERTEX
8
0
10
317.900000
20
333.200000
0
VERTEX
8
0
10
319.000000
20
334.000000
0
VERTEX
8
0
10
327.000000
20
334.000000
0
VERTEX
8
0
10
329.000000
20
332.000000
0
VERTEX
8
0
10
326.000000
20
320.000000
0
VERTEX
8
0
10
324.000000
20
318.000000
0
VERTEX
8
0
10
323.000000
20
318.000000
0
VERTEX
8
0
10
318.000000
20
321.000000
0
VERTEX
8
0
10
306.000000
20
321.000000
0
VERTEX
8
0
10
303.000000
20
320.000000
0
VERTEX
8
0
10
302.000000
20
319.000000
0
VERTEX
8
0
10
311.000000
20
309.000000
0
VERTEX
8
0
10
315.100000
20
307.200000
0
VERTEX
8
0
10
315.900000
20
306.800000
0
VERTEX
8
0
10
326.000000
20
306.000000
0
SEQEND
0
POLYLINE
8
0
6
CONTINUOUS
66
1
62
7
10
0.0
20
0.0
30
0.000000
0
VERTEX
8
0
10
315.000000
20
295.000000
0
VERTEX
8
0
10
317.000000
20
297.000000
0
VERTEX
8
0
10
317.000000
20
300.000000
0
VERTEX
8
0
10
315.000000
20
303.000000
0
VERTEX
8
0
10
309.088235
20
304.352941
0
VERTEX
8
0
10
305.000000
20
306.000000
0
VERTEX
8
0
10
304.000000
20
305.000000
0
VERTEX
8
0
10
304.000000
20
298.000000
0
VERTEX
8
0
10
311.911765
20
295.647059
0
VERTEX
8
0
10
315.000000
20
295.000000
0
SEQEND
0
POLYLINE
8
0
6
CONTINUOUS
66
1
62
7
10
0.0
20
0.0
30
0.000000
0
VERTEX
8
0
10
538.000000
20
291.000000
0
VERTEX
8
0
10
540.000000
20
293.000000
0
VERTEX
8
0
10
534.000000
20
310.000000
0
VERTEX
8
0
10
523.000000
20
308.000000
0
VERTEX
8
0
10
522.000000
20
307.000000
0
VERTEX
8
0
10
522.700000
20
304.900000
0
VERTEX
8
0
10
526.000000
20
297.000000
0
VERTEX
8
0
10
531.000000
20
292.000000
0
VERTEX
8
0
10
533.067568
20
291.405405
0
VERTEX
8
0
10
538.000000
20
291.000000
0
SEQEND
0
POLYLINE
8
0
6
CONTINUOUS
66
1
62
7
10
0.0
20
0.0
30
0.000000
0
VERTEX
8
0
10
317.000000
20
281.000000
0
VERTEX
8
0
10
317.000000
20
284.000000
0
VERTEX
8
0
10
314.153846
20
286.230769
0
VERTEX
8
0
10
308.846154
20
289.769231
0
VERTEX
8
0
10
303.000000
20
293.000000
0
VERTEX
8
0
10
301.000000
20
291.000000
0
VERTEX
8
0
10
300.300000
20
288.900000
0
VERTEX
8
0
10
299.000000
20
282.000000
0
VERTEX
8
0
10
299.250000
20
281.250000
0
VERTEX
8
0
10
317.000000
20
281.000000
0
SEQEND
0
POLYLINE
8
0
6
CONTINUOUS
66
1
62
7
10
0.0
20
0.0
30
0.000000
0
VERTEX
8
0
10
543.000000
20
276.000000
0
VERTEX
8
0
10
549.000000
20
280.000000
0
VERTEX
8
0
10
547.700000
20
282.900000
0
VERTEX
8
0
10
547.000000
20
285.000000
0
VERTEX
8
0
10
545.100000
20
286.200000
0
VERTEX
8
0
10
544.000000
20
287.000000
0
VERTEX
8
0
10
539.900000
20
286.300000
0
VERTEX
8
0
10
538.000000
20
286.000000
0
VERTEX
8
0
10
536.000000
20
284.000000
0
VERTEX
8
0
10
536.000000
20
283.000000
0
VERTEX
8
0
10
539.000000
20
278.000000
0
VERTEX
8
0
10
543.000000
20
276.000000
0
SEQEND
0
POLYLINE
8
0
6
CONTINUOUS
66
1
62
7
10
0.0
20
0.0
30
0.000000
0
VERTEX
8
0
10
301.000000
20
264.000000
0
VERTEX
8
0
10
306.100000
20
265.700000
0
VERTEX
8
0
10
311.000000
20
268.000000
0
VERTEX
8
0
10
313.000000
20
270.000000
0
VERTEX
8
0
10
312.750000
20
273.750000
0
VERTEX
8
0
10
299.000000
20
277.000000
0
VERTEX
8
0
10
295.000000
20
274.000000
0
VERTEX
8
0
10
295.000000
20
266.000000
0
VERTEX
8
0
10
296.000000
20
265.000000
0
VERTEX
8
0
10
301.000000
20
264.000000
0
SEQEND
0
POLYLINE
8
0
6
CONTINUOUS
66
1
62
7
10
0.0
20
0.0
30
0.000000
0
VERTEX
8
0
10
301.000000
20
247.000000
0
VERTEX
8
0
10
303.000000
20
248.000000
0
VERTEX
8
0
10
305.200000
20
251.900000
0
VERTEX
8
0
10
306.000000
20
253.000000
0
VERTEX
8
0
10
306.000000
20
256.000000
0
VERTEX
8
0
10
293.000000
20
260.000000
0
VERTEX
8
0
10
291.800000
20
258.100000
0
VERTEX
8
0
10
290.000000
20
253.000000
0
VERTEX
8
0
10
290.000000
20
248.000000
0
VERTEX
8
0
10
291.000000
20
247.000000
0
VERTEX
8
0
10
301.000000
20
247.000000
0
SEQEND
0
POLYLINE
8
0
6
CONTINUOUS
66
1
62
7
10
0.0
20
0.0
30
0.000000
0
VERTEX
8
0
10
295.000000
20
228.000000
0
VERTEX
8
0
10
297.200000
20
230.900000
0
VERTEX
8
0
10
300.000000
20
235.000000
0
VERTEX
8
0
10
301.000000
20
235.000000
0
VERTEX
8
0
10
306.000000
20
240.000000
0
VERTEX
8
0
10
306.000000
20
241.000000
0
VERTEX
8
0
10
304.000000
20
243.000000
0
VERTEX
8
0
10
300.100000
20
240.700000
0
VERTEX
8
0
10
296.000000
20
240.000000
0
VERTEX
8
0
10
290.000000
20
242.000000
0
VERTEX
8
0
10
289.000000
20
242.000000
0
VERTEX
8
0
10
287.000000
20
240.000000
0
VERTEX
8
0
10
284.000000
20
233.000000
0
VERTEX
8
0
10
285.000000
20
231.000000
0
VERTEX
8
0
10
295.000000
20
228.000000
0
SEQEND
0
POLYLINE
8
0
6
CONTINUOUS
66
1
62
7
10
0.0
20
0.0
30
0.000000
0
VERTEX
8
0
10
572.000000
20
224.000000
0
VERTEX
8
0
10
571.541176
20
236.964706
0
VERTEX
8
0
10
570.000000
20
240.000000
0
VERTEX
8
0
10
565.000000
20
240.000000
0
VERTEX
8
0
10
563.000000
20
238.000000
0
VERTEX
8
0
10
563.000000
20
230.000000
0
VERTEX
8
0
10
565.000000
20
227.000000
0
VERTEX
8
0
10
566.000000
20
226.000000
0
VERTEX
8
0
10
572.000000
20
224.000000
0
SEQEND
0
POLYLINE
8
0
6
CONTINUOUS
66
1
62
7
10
0.0
20
0.0
30
0.000000
0
VERTEX
8
0
10
387.000000
20
207.000000
0
VERTEX
8
0
10
388.000000
20
208.000000
0
VERTEX
8
0
10
384.000000
20
220.000000
0
VERTEX
8
0
10
377.000000
20
227.000000
0
VERTEX
8
0
10
374.000000
20
228.000000
0
VERTEX
8
0
10
373.000000
20
227.000000
0
VERTEX
8
0
10
373.800000
20
223.900000
0
VERTEX
8
0
10
376.247788
20
219.216814
0
VERTEX
8
0
10
387.000000
20
207.000000
0
SEQEND
0
POLYLINE
8
0
6
CONTINUOUS
66
1
62
7
10
0.0
20
0.0
30
0.000000
0
VERTEX
8
0
10
527.000000
20
203.000000
0
VERTEX
8
0
10
528.100000
20
203.700000
0
VERTEX
8
0
10
535.000000
20
206.000000
0
VERTEX
8
0
10
537.000000
20
208.000000
0
VERTEX
8
0
10
534.100000
20
209.300000
0
VERTEX
8
0
10
527.923077
20
211.615385
0
VERTEX
8
0
10
524.076923
20
212.384615
0
VERTEX
8
0
10
515.000000
20
214.000000
0
VERTEX
8
0
10
503.000000
20
214.000000
0
VERTEX
8
0
10
496.088235
20
211.647059
0
VERTEX
8
0
10
494.900000
20
211.200000
0
VERTEX
8
0
10
489.000000
20
207.000000
0
VERTEX
8
0
10
488.000000
20
205.000000
0
VERTEX
8
0
10
489.000000
20
204.000000
0
VERTEX
8
0
10
527.000000
20
203.000000
0
SEQEND
0
POLYLINE
8
0
6
CONTINUOUS
66
1
62
7
10
0.0
20
0.0
30
0.000000
0
VERTEX
8
0
10
294.000000
20
202.000000
0
VERTEX
8
0
10
294.800000
20
203.100000
0
VERTEX
8
0
10
296.647059
20
209.088235
0
VERTEX
8
0
10
297.000000
20
212.000000
0
VERTEX
8
0
10
296.000000
20
213.000000
0
VERTEX
8
0
10
280.000000
20
215.000000
0
VERTEX
8
0
10
279.000000
20
213.000000
0
VERTEX
8
0
10
284.000000
20
206.000000
0
VERTEX
8
0
10
289.100000
20
204.300000
0
VERTEX
8
0
10
294.000000
20
202.000000
0
SEQEND
0
POLYLINE
8
0
6
CONTINUOUS
66
1
62
7
10
0.0
20
0.0
30
0.000000
0
VERTEX
8
0
10
252.000000
20
192.000000
0
VERTEX
8
0
10
251.000000
20
196.000000
0
VERTEX
8
0
10
246.100000
20
199.200000
0
VERTEX
8
0
10
245.000000
20
200.000000
0
VERTEX
8
0
10
238.972414
20
199.468966
0
VERTEX
8
0
10
223.000000
20
199.000000
0
VERTEX
8
0
10
222.000000
20
198.000000
0
VERTEX
8
0
10
223.000000
20
196.000000
0
VERTEX
8
0
10
225.900000
20
193.800000
0
VERTEX
8
0
10
229.911765
20
192.647059
0
VERTEX
8
0
10
231.000000
20
192.000000
0
VERTEX
8
0
10
239.000000
20
192.000000
0
VERTEX
8
0
10
240.000000
20
193.000000
0
VERTEX
8
0
10
249.000000
20
193.000000
0
VERTEX
8
0
10
252.000000
20
192.000000
0
SEQEND
0
POLYLINE
8
0
6
CONTINUOUS
66
1
62
7
10
0.0
20
0.0
30
0.000000
0
VERTEX
8
0
10
196.000000
20
185.000000
0
VERTEX
8
0
10
197.000000
20
186.000000
0
VERTEX
8
0
10
196.200000
20
188.100000
0
VERTEX
8
0
10
195.000000
20
194.000000
0
VERTEX
8
0
10
191.000000
20
197.000000
0
VERTEX
8
0
10
190.000000
20
196.000000
0
VERTEX
8
0
10
190.000000
20
194.000000
0
VERTEX
8
0
10
194.000000
20
186.000000
0
VERTEX
8
0
10
196.000000
20
185.000000
0
SEQEND
0
POLYLINE
8
0
6
CONTINUOUS
66
1
62
7
10
0.0
20
0.0
30
0.000000
0
VERTEX
8
0
10
285.000000
20
183.000000
0
VERTEX
8
0
10
289.000000
20
185.000000
0
VERTEX
8
0
10
293.200000
20
191.900000
0
VERTEX
8
0
10
294.000000
20
193.000000
0
VERTEX
8
0
10
294.000000
20
195.000000
0
VERTEX
8
0
10
293.000000
20
196.000000
0
VERTEX
8
0
10
286.164706
20
196.741176
0
VERTEX
8
0
10
278.000000
20
201.000000
0
VERTEX
8
0
10
275.000000
20
201.000000
0
VERTEX
8
0
10
272.800000
20
198.100000
0
VERTEX
8
0
10
272.000000
20
197.000000
0
VERTEX
8
0
10
280.200000
20
188.100000
0
VERTEX
8
0
10
282.000000
20
183.000000
0
VERTEX
8
0
10
285.000000
20
183.000000
0
SEQEND
0
POLYLINE
8
0
6
CONTINUOUS
66
1
62
7
10
0.0
20
0.0
30
0.000000
0
VERTEX
8
0
10
115.000000
20
179.000000
0
VERTEX
8
0
10
152.100000
20
180.700000
0
VERTEX
8
0
10
160.000000
20
184.000000
0
VERTEX
8
0
10
161.000000
20
185.000000
0
VERTEX
8
0
10
158.100000
20
186.300000
0
VERTEX
8
0
10
146.000000
20
189.000000
0
VERTEX
8
0
10
126.000000
20
189.000000
0
VERTEX
8
0
10
124.900000
20
188.200000
0
VERTEX
8
0
10
116.000000
20
184.000000
0
VERTEX
8
0
10
112.000000
20
180.000000
0
VERTEX
8
0
10
113.000000
20
179.000000
0
VERTEX
8
0
10
115.000000
20
179.000000
0
SEQEND
0
POLYLINE
8
0
6
CONTINUOUS
66
1
62
7
10
0.0
20
0.0
30
0.000000
0
VERTEX
8
0
10
439.000000
20
177.000000
0
VERTEX
8
0
10
440.040984
20
177.549180
0
VERTEX
8
0
10
481.024862
20
180.527624
0
VERTEX
8
0
10
519.000000
20
183.000000
0
VERTEX
8
0
10
520.000000
20
184.000000
0
VERTEX
8
0
10
520.000000
20
186.000000
0
VERTEX
8
0
10
516.932432
20
187.594595
0
VERTEX
8
0
10
512.188679
20
188.660377
0
VERTEX
8
0
10
510.000000
20
190.000000
0
VERTEX
8
0
10
482.000000
20
190.000000
0
VERTEX
8
0
10
457.932432
20
187.405405
0
VERTEX
8
0
10
448.076923
20
185.615385
0
VERTEX
8
0
10
432.000000
20
179.000000
0
VERTEX
8
0
10
431.000000
20
178.000000
0
VERTEX
8
0
10
432.000000
20
177.000000
0
VERTEX
8
0
10
439.000000
20
177.000000
0
SEQEND
0
POLYLINE
8
0
6
CONTINUOUS
66
1
62
7
10
0.0
20
0.0
30
0.000000
0
VERTEX
8
0
10
413.000000
20
174.000000
0
VERTEX
8
0
10
427.195122
20
184.756098
0
VERTEX
8
0
10
441.153846
20
194.769231
0
VERTEX
8
0
10
449.153846
20
199.769231
0
VERTEX
8
0
10
468.000000
20
214.000000
0
VERTEX
8
0
10
473.000000
20
219.000000
0
VERTEX
8
0
10
472.000000
20
221.000000
0
VERTEX
8
0
10
470.000000
20
221.000000
0
VERTEX
8
0
10
453.153846
20
211.769231
0
VERTEX
8
0
10
446.820000
20
207.240000
0
VERTEX
8
0
10
433.000000
20
199.000000
0
VERTEX
8
0
10
432.000000
20
200.000000
0
VERTEX
8
0
10
413.000000
20
200.000000
0
VERTEX
8
0
10
403.000000
20
195.000000
0
VERTEX
8
0
10
400.800000
20
192.100000
0
VERTEX
8
0
10
400.000000
20
191.000000
0
VERTEX
8
0
10
402.000000
20
189.000000
0
VERTEX
8
0
10
404.000000
20
189.000000
0
VERTEX
8
0
10
413.000000
20
193.000000
0
VERTEX
8
0
10
423.000000
20
193.000000
0
VERTEX
8
0
10
425.000000
20
191.000000
0
VERTEX
8
0
10
425.000000
20
190.000000
0
VERTEX
8
0
10
421.100000
20
186.800000
0
VERTEX
8
0
10
411.900000
20
182.200000
0
VERTEX
8
0
10
405.000000
20
178.000000
0
VERTEX
8
0
10
402.000000
20
175.000000
0
VERTEX
8
0
10
403.000000
20
174.000000
0
VERTEX
8
0
10
410.000000
20
176.000000
0
VERTEX
8
0
10
413.000000
20
174.000000
0
SEQEND
0
POLYLINE
8
0
6
CONTINUOUS
66
1
62
7
10
0.0
20
0.0
30
0.000000
0
VERTEX
8
0
10
737.000000
20
173.000000
0
VERTEX
8
0
10
742.000000
20
176.000000
0
VERTEX
8
0
10
740.000000
20
178.000000
0
VERTEX
8
0
10
729.900000
20
180.700000
0
VERTEX
8
0
10
714.940000
20
183.580000
0
VERTEX
8
0
10
680.000000
20
189.000000
0
VERTEX
8
0
10
678.000000
20
191.000000
0
VERTEX
8
0
10
683.846154
20
195.230769
0
VERTEX
8
0
10
686.153846
20
196.769231
0
VERTEX
8
0
10
706.000000
20
214.000000
0
VERTEX
8
0
10
709.000000
20
220.000000
0
VERTEX
8
0
10
708.000000
20
221.000000
0
VERTEX
8
0
10
703.900000
20
219.200000
0
VERTEX
8
0
10
703.100000
20
218.800000
0
VERTEX
8
0
10
693.204918
20
212.754098
0
VERTEX
8
0
10
687.795082
20
208.245902
0
VERTEX
8
0
10
680.000000
20
201.000000
0
VERTEX
8
0
10
671.750520
20
191.233888
0
VERTEX
8
0
10
657.000000
20
176.000000
0
VERTEX
8
0
10
657.000000
20
174.000000
0
VERTEX
8
0
10
658.000000
20
173.000000
0
VERTEX
8
0
10
660.000000
20
173.000000
0
VERTEX
8
0
10
672.900000
20
184.300000
0
VERTEX
8
0
10
674.000000
20
185.000000
0
VERTEX
8
0
10
677.900000
20
183.800000
0
VERTEX
8
0
10
687.019931
20
179.478336
0
VERTEX
8
0
10
709.980069
20
178.521664
0
VERTEX
8
0
10
713.911765
20
177.647059
0
VERTEX
8
0
10
733.076923
20
173.384615
0
VERTEX
8
0
10
737.000000
20
173.000000
0
SEQEND
0
POLYLINE
8
0
6
CONTINUOUS
66
1
62
7
10
0.0
20
0.0
30
0.000000
0
VERTEX
8
0
10
351.000000
20
171.000000
0
VERTEX
8
0
10
356.100000
20
173.800000
0
VERTEX
8
0
10
385.153846
20
191.769231
0
VERTEX
8
0
10
393.000000
20
197.000000
0
VERTEX
8
0
10
395.000000
20
199.000000
0
VERTEX
8
0
10
394.000000
20
200.000000
0
VERTEX
8
0
10
384.900000
20
196.300000
0
VERTEX
8
0
10
383.100000
20
195.700000
0
VERTEX
8
0
10
367.100000
20
186.800000
0
VERTEX
8
0
10
363.900000
20
185.200000
0
VERTEX
8
0
10
349.000000
20
172.000000
0
VERTEX
8
0
10
351.000000
20
171.000000
0
SEQEND
0
POLYLINE
8
0
6
CONTINUOUS
66
1
62
7
10
0.0
20
0.0
30
0.000000
0
VERTEX
8
0
10
498.000000
20
154.000000
0
VERTEX
8
0
10
500.000000
20
157.000000
0
VERTEX
8
0
10
499.000000
20
158.000000
0
VERTEX
8
0
10
495.000000
20
158.000000
0
VERTEX
8
0
10
493.800000
20
156.100000
0
VERTEX
8
0
10
493.000000
20
155.000000
0
VERTEX
8
0
10
494.000000
20
154.000000
0
VERTEX
8
0
10
498.000000
20
154.000000
0
SEQEND
0
POLYLINE
8
0
6
CONTINUOUS
66
1
62
7
10
0.0
20
0.0
30
0.000000
0
VERTEX
8
0
10
134.000000
20
151.000000
0
VERTEX
8
0
10
150.911765
20
155.352941
0
VERTEX
8
0
10
180.088235
20
155.647059
0
VERTEX
8
0
10
190.000000
20
159.000000
0
VERTEX
8
0
10
191.000000
20
160.000000
0
VERTEX
8
0
10
184.000000
20
162.000000
0
VERTEX
8
0
10
163.000000
20
162.000000
0
VERTEX
8
0
10
151.067568
20
159.594595
0
VERTEX
8
0
10
133.100000
20
153.800000
0
VERTEX
8
0
10
131.000000
20
153.000000
0
VERTEX
8
0
10
130.000000
20
152.000000
0
VERTEX
8
0
10
131.000000
20
151.000000
0
VERTEX
8
0
10
134.000000
20
151.000000
0
SEQEND
0
POLYLINE
8
0
6
CONTINUOUS
66
1
62
7
10
0.0
20
0.0
30
0.000000
0
VERTEX
8
0
10
222.000000
20
151.000000
0
VERTEX
8
0
10
223.100000
20
151.700000
0
VERTEX
8
0
10
227.000000
20
153.000000
0
VERTEX
8
0
10
234.000000
20
160.000000
0
VERTEX
8
0
10
235.769231
20
163.153846
0
VERTEX
8
0
10
237.000000
20
166.000000
0
VERTEX
8
0
10
236.000000
20
167.000000
0
VERTEX
8
0
10
229.900000
20
164.300000
0
VERTEX
8
0
10
226.000000
20
163.000000
0
VERTEX
8
0
10
221.000000
20
158.000000
0
VERTEX
8
0
10
220.352941
20
154.911765
0
VERTEX
8
0
10
220.000000
20
152.000000
0
VERTEX
8
0
10
221.000000
20
151.000000
0
VERTEX
8
0
10
222.000000
20
151.000000
0
SEQEND
0
POLYLINE
8
0
6
CONTINUOUS
66
1
62
7
10
0.0
20
0.0
30
0.000000
0
VERTEX
8
0
10
404.000000
20
140.000000
0
VERTEX
8
0
10
405.100000
20
140.700000
0
VERTEX
8
0
10
430.053846
20
147.569231
0
VERTEX
8
0
10
447.000000
20
149.000000
0
VERTEX
8
0
10
448.000000
20
150.000000
0
VERTEX
8
0
10
447.000000
20
151.000000
0
VERTEX
8
0
10
423.000000
20
151.000000
0
VERTEX
8
0
10
421.911765
20
150.352941
0
VERTEX
8
0
10
409.180000
20
146.760000
0
VERTEX
8
0
10
405.000000
20
144.000000
0
VERTEX
8
0
10
403.000000
20
142.000000
0
VERTEX
8
0
10
404.000000
20
140.000000
0
SEQEND
0
POLYLINE
8
0
6
CONTINUOUS
66
1
62
7
10
0.0
20
0.0
30
0.000000
0
VERTEX
8
0
10
248.000000
20
129.000000
0
VERTEX
8
0
10
282.946154
20
133.430769
0
VERTEX
8
0
10
304.012803
20
136.513495
0
VERTEX
8
0
10
340.987197
20
137.486505
0
VERTEX
8
0
10
347.000000
20
140.000000
0
VERTEX
8
0
10
348.000000
20
141.000000
0
VERTEX
8
0
10
347.000000
20
142.000000
0
VERTEX
8
0
10
287.000000
20
142.000000
0
VERTEX
8
0
10
259.053846
20
138.569231
0
VERTEX
8
0
10
243.100000
20
133.700000
0
VERTEX
8
0
10
241.153846
20
132.769231
0
VERTEX
8
0
10
237.000000
20
130.000000
0
VERTEX
8
0
10
238.000000
20
129.000000
0
VERTEX
8
0
10
248.000000
20
129.000000
0
SEQEND
0
POLYLINE
8
0
6
CONTINUOUS
66
1
62
7
10
0.0
20
0.0
30
0.000000
0
VERTEX
8
0
10
693.000000
20
127.000000
0
VERTEX
8
0
10
702.795082
20
136.245902
0
VERTEX
8
0
10
719.153846
20
148.769231
0
VERTEX
8
0
10
720.000000
20
149.000000
0
VERTEX
8
0
10
733.000000
20
162.000000
0
VERTEX
8
0
10
732.000000
20
163.000000
0
VERTEX
8
0
10
714.946154
20
164.569231
0
VERTEX
8
0
10
708.053846
20
165.430769
0
VERTEX
8
0
10
678.983907
20
169.517203
0
VERTEX
8
0
10
649.250000
20
169.750000
0
VERTEX
8
0
10
650.000000
20
164.000000
0
VERTEX
8
0
10
652.000000
20
162.000000
0
VERTEX
8
0
10
692.988385
20
161.512181
0
VERTEX
8
0
10
713.000000
20
157.000000
0
VERTEX
8
0
10
714.000000
20
156.000000
0
VERTEX
8
0
10
714.000000
20
155.000000
0
VERTEX
8
0
10
696.000000
20
138.000000
0
VERTEX
8
0
10
692.000000
20
130.000000
0
VERTEX
8
0
10
692.000000
20
128.000000
0
VERTEX
8
0
10
693.000000
20
127.000000
0
SEQEND
0
POLYLINE
8
0
6
CONTINUOUS
66
1
62
7
10
0.0
20
0.0
30
0.000000
0
VERTEX
8
0
10
375.000000
20
120.000000
0
VERTEX
8
0
10
380.900000
20
122.300000
0
VERTEX
8
0
10
407.088235
20
130.647059
0
VERTEX
8
0
10
416.048780
20
132.560976
0
VERTEX
8
0
10
426.000000
20
134.000000
0
VERTEX
8
0
10
427.000000
20
135.000000
0
VERTEX
8
0
10
426.000000
20
136.000000
0
VERTEX
8
0
10
401.946154
20
134.430769
0
VERTEX
8
0
10
393.900000
20
133.300000
0
VERTEX
8
0
10
380.900000
20
128.200000
0
VERTEX
8
0
10
377.000000
20
126.000000
0
VERTEX
8
0
10
373.000000
20
122.000000
0
VERTEX
8
0
10
373.000000
20
121.000000
0
VERTEX
8
0
10
375.000000
20
120.000000
0
SEQEND
0
POLYLINE
8
0
6
CONTINUOUS
66
1
62
7
10
0.0
20
0.0
30
0.000000
0
VERTEX
8
0
10
673.000000
20
120.000000
0
VERTEX
8
0
10
676.000000
20
123.000000
0
VERTEX
8
0
10
678.100000
20
122.300000
0
VERTEX
8
0
10
679.900000
20
121.700000
0
VERTEX
8
0
10
681.000000
20
121.000000
0
VERTEX
8
0
10
685.000000
20
121.000000
0
VERTEX
8
0
10
688.000000
20
123.000000
0
VERTEX
8
0
10
688.000000
20
124.000000
0
VERTEX
8
0
10
679.100000
20
127.300000
0
VERTEX
8
0
10
662.088235
20
132.352941
0
VERTEX
8
0
10
644.100000
20
140.200000
0
VERTEX
8
0
10
642.900000
20
140.700000
0
VERTEX
8
0
10
635.000000
20
144.000000
0
VERTEX
8
0
10
633.000000
20
146.000000
0
VERTEX
8
0
10
635.000000
20
148.000000
0
VERTEX
8
0
10
653.011891
20
150.512485
0
VERTEX
8
0
10
693.000000
20
151.000000
0
VERTEX
8
0
10
694.000000
20
152.000000
0
VERTEX
8
0
10
693.000000
20
153.000000
0
VERTEX
8
0
10
679.975138
20
154.527624
0
VERTEX
8
0
10
661.000000
20
156.000000
0
VERTEX
8
0
10
635.000000
20
156.000000
0
VERTEX
8
0
10
621.923077
20
153.384615
0
VERTEX
8
0
10
614.000000
20
152.000000
0
VERTEX
8
0
10
611.000000
20
155.000000
0
VERTEX
8
0
10
611.000000
20
156.000000
0
VERTEX
8
0
10
602.100000
20
164.200000
0
VERTEX
8
0
10
601.000000
20
165.000000
0
VERTEX
8
0
10
600.000000
20
164.000000
0
VERTEX
8
0
10
600.000000
20
158.000000
0
VERTEX
8
0
10
608.751381
20
148.776243
0
VERTEX
8
0
10
609.700000
20
146.900000
0
VERTEX
8
0
10
610.000000
20
145.000000
0
VERTEX
8
0
10
617.900000
20
142.700000
0
VERTEX
8
0
10
625.100000
20
140.300000
0
VERTEX
8
0
10
640.100000
20
133.200000
0
VERTEX
8
0
10
646.100000
20
130.200000
0
VERTEX
8
0
10
665.100000
20
122.300000
0
VERTEX
8
0
10
673.000000
20
120.000000
0
SEQEND
0
POLYLINE
8
0
6
CONTINUOUS
66
1
62
7
10
0.0
20
0.0
30
0.000000
0
VERTEX
8
0
10
567.000000
20
116.000000
0
VERTEX
8
0
10
569.000000
20
118.000000
0
VERTEX
8
0
10
564.911765
20
119.647059
0
VERTEX
8
0
10
562.088235
20
120.352941
0
VERTEX
8
0
10
556.204918
20
123.245902
0
VERTEX
8
0
10
546.000000
20
132.000000
0
VERTEX
8
0
10
547.000000
20
133.000000
0
VERTEX
8
0
10
567.067568
20
136.594595
0
VERTEX
8
0
10
573.076923
20
137.615385
0
VERTEX
8
0
10
594.900000
20
143.300000
0
VERTEX
8
0
10
596.900000
20
144.200000
0
VERTEX
8
0
10
601.000000
20
147.000000
0
VERTEX
8
0
10
595.000000
20
151.000000
0
VERTEX
8
0
10
583.911765
20
148.352941
0
VERTEX
8
0
10
581.088235
20
147.647059
0
VERTEX
8
0
10
576.000000
20
147.000000
0
VERTEX
8
0
10
575.000000
20
148.000000
0
VERTEX
8
0
10
584.482759
20
162.206897
0
VERTEX
8
0
10
587.000000
20
172.000000
0
VERTEX
8
0
10
583.760000
20
177.820000
0
VERTEX
8
0
10
581.000000
20
181.000000
0
VERTEX
8
0
10
581.800000
20
183.100000
0
VERTEX
8
0
10
582.000000
20
184.000000
0
VERTEX
8
0
10
589.000000
20
187.000000
0
VERTEX
8
0
10
590.000000
20
188.000000
0
VERTEX
8
0
10
590.000000
20
190.000000
0
VERTEX
8
0
10
588.100000
20
191.200000
0
VERTEX
8
0
10
586.900000
20
191.800000
0
VERTEX
8
0
10
582.000000
20
194.000000
0
VERTEX
8
0
10
579.000000
20
197.000000
0
VERTEX
8
0
10
578.000000
20
201.000000
0
VERTEX
8
0
10
579.900000
20
202.200000
0
VERTEX
8
0
10
588.000000
20
205.000000
0
VERTEX
8
0
10
588.000000
20
210.000000
0
VERTEX
8
0
10
586.000000
20
212.000000
0
VERTEX
8
0
10
583.900000
20
211.200000
0
VERTEX
8
0
10
575.000000
20
208.000000
0
VERTEX
8
0
10
570.000000
20
215.000000
0
VERTEX
8
0
10
579.800000
20
226.100000
0
VERTEX
8
0
10
581.000000
20
230.000000
0
VERTEX
8
0
10
575.800000
20
240.900000
0
VERTEX
8
0
10
574.800000
20
242.900000
0
VERTEX
8
0
10
571.000000
20
249.000000
0
VERTEX
8
0
10
564.100000
20
246.800000
0
VERTEX
8
0
10
562.900000
20
246.200000
0
VERTEX
8
0
10
559.000000
20
245.000000
0
VERTEX
8
0
10
556.000000
20
248.000000
0
VERTEX
8
0
10
555.000000
20
251.000000
0
VERTEX
8
0
10
555.000000
20
253.000000
0
VERTEX
8
0
10
564.000000
20
261.000000
0
VERTEX
8
0
10
565.000000
20
265.000000
0
VERTEX
8
0
10
564.000000
20
266.000000
0
VERTEX
8
0
10
559.000000
20
266.000000
0
VERTEX
8
0
10
550.000000
20
261.500000
0
VERTEX
8
0
10
548.000000
20
262.000000
0
VERTEX
8
0
10
545.000000
20
268.000000
0
VERTEX
8
0
10
553.751381
20
277.223757
0
VERTEX
8
0
10
556.000000
20
281.000000
0
VERTEX
8
0
10
556.000000
20
283.000000
0
VERTEX
8
0
10
546.769231
20
294.846154
0
VERTEX
8
0
10
541.300000
20
303.100000
0
VERTEX
8
0
10
540.700000
20
304.900000
0
VERTEX
8
0
10
539.000000
20
311.000000
0
VERTEX
8
0
10
539.000000
20
316.000000
0
VERTEX
8
0
10
541.000000
20
318.000000
0
VERTEX
8
0
10
551.200000
20
298.100000
0
VERTEX
8
0
10
554.300000
20
291.100000
0
VERTEX
8
0
10
569.200000
20
262.100000
0
VERTEX
8
0
10
569.800000
20
260.900000
0
VERTEX
8
0
10
592.240000
20
224.180000
0
VERTEX
8
0
10
595.247788
20
220.216814
0
VERTEX
8
0
10
610.000000
20
204.000000
0
VERTEX
8
0
10
614.846154
20
201.769231
0
VERTEX
8
0
10
619.044554
20
199.445545
0
VERTEX
8
0
10
628.000000
20
199.000000
0
VERTEX
8
0
10
634.000000
20
192.000000
0
VERTEX
8
0
10
632.000000
20
190.000000
0
VERTEX
8
0
10
630.000000
20
190.000000
0
VERTEX
8
0
10
621.100000
20
193.200000
0
VERTEX
8
0
10
619.911765
20
193.647059
0
VERTEX
8
0
10
613.250000
20
194.750000
0
VERTEX
8
0
10
613.594595
20
183.932432
0
VERTEX
8
0
10
616.200000
20
173.100000
0
VERTEX
8
0
10
619.000000
20
168.000000
0
VERTEX
8
0
10
622.750000
20
168.250000
0
VERTEX
8
0
10
624.405405
20
176.932432
0
VERTEX
8
0
10
624.647059
20
178.088235
0
VERTEX
8
0
10
625.000000
20
181.000000
0
VERTEX
8
0
10
627.000000
20
183.000000
0
VERTEX
8
0
10
631.000000
20
183.000000
0
VERTEX
8
0
10
633.300000
20
178.100000
0
VERTEX
8
0
10
633.800000
20
176.900000
0
VERTEX
8
0
10
636.000000
20
174.000000
0
VERTEX
8
0
10
640.100000
20
175.700000
0
VERTEX
8
0
10
648.000000
20
179.000000
0
VERTEX
8
0
10
651.200000
20
183.900000
0
VERTEX
8
0
10
652.000000
20
185.000000
0
VERTEX
8
0
10
652.000000
20
194.000000
0
VERTEX
8
0
10
651.000000
20
195.000000
0
VERTEX
8
0
10
646.900000
20
195.700000
0
VERTEX
8
0
10
641.153846
20
198.230769
0
VERTEX
8
0
10
635.180000
20
202.240000
0
VERTEX
8
0
10
626.900000
20
207.700000
0
VERTEX
8
0
10
609.000000
20
215.000000
0
VERTEX
8
0
10
584.200000
20
257.100000
0
VERTEX
8
0
10
576.800000
20
271.900000
0
VERTEX
8
0
10
560.300000
20
307.100000
0
VERTEX
8
0
10
552.300000
20
326.100000
0
VERTEX
8
0
10
550.000000
20
333.000000
0
VERTEX
8
0
10
554.800000
20
340.100000
0
VERTEX
8
0
10
555.000000
20
341.000000
0
VERTEX
8
0
10
559.100000
20
343.800000
0
VERTEX
8
0
10
561.000000
20
345.000000
0
VERTEX
8
0
10
559.700000
20
347.900000
0
VERTEX
8
0
10
559.000000
20
349.000000
0
VERTEX
8
0
10
559.000000
20
365.000000
0
VERTEX
8
0
10
564.300000
20
379.900000
0
VERTEX
8
0
10
566.615385
20
390.076923
0
VERTEX
8
0
10
568.000000
20
396.000000
0
VERTEX
8
0
10
570.000000
20
398.000000
0
VERTEX
8
0
10
575.100000
20
399.700000
0
VERTEX
8
0
10
577.000000
20
400.000000
0
VERTEX
8
0
10
579.000000
20
402.000000
0
VERTEX
8
0
10
580.800000
20
407.100000
0
VERTEX
8
0
10
584.249057
20
413.771698
0
VERTEX
8
0
10
594.750943
20
425.228302
0
VERTEX
8
0
10
605.000000
20
435.000000
0
VERTEX
8
0
10
608.800000
20
443.100000
0
VERTEX
8
0
10
610.000000
20
446.000000
0
VERTEX
8
0
10
613.000000
20
449.000000
0
VERTEX
8
0
10
621.100000
20
452.800000
0
VERTEX
8
0
10
625.000000
20
454.000000
0
VERTEX
8
0
10
627.000000
20
456.000000
0
VERTEX
8
0
10
625.000000
20
460.000000
0
VERTEX
8
0
10
625.000000
20
465.000000
0
VERTEX
8
0
10
634.751131
20
475.226244
0
VERTEX
8
0
10
635.580000
20
477.060000
0
VERTEX
8
0
10
636.000000
20
483.000000
0
VERTEX
8
0
10
637.000000
20
484.000000
0
VERTEX
8
0
10
646.000000
20
486.000000
0
VERTEX
8
0
10
649.000000
20
494.000000
0
VERTEX
8
0
10
649.000000
20
497.000000
0
VERTEX
8
0
10
645.000000
20
503.000000
0
VERTEX
8
0
10
637.000000
20
507.000000
0
VERTEX
8
0
10
634.800000
20
510.900000
0
VERTEX
8
0
10
634.200000
20
512.100000
0
VERTEX
8
0
10
633.000000
20
515.000000
0
VERTEX
8
0
10
634.000000
20
517.000000
0
VERTEX
8
0
10
635.000000
20
518.000000
0
VERTEX
8
0
10
637.000000
20
518.000000
0
VERTEX
8
0
10
643.100000
20
514.200000
0
VERTEX
8
0
10
644.000000
20
514.000000
0
VERTEX
8
0
10
645.000000
20
515.000000
0
VERTEX
8
0
10
644.580000
20
520.940000
0
VERTEX
8
0
10
641.700000
20
530.900000
0
VERTEX
8
0
10
638.000000
20
541.000000
0
VERTEX
8
0
10
638.000000
20
547.000000
0
VERTEX
8
0
10
640.230769
20
550.846154
0
VERTEX
8
0
10
642.000000
20
553.000000
0
VERTEX
8
0
10
639.300000
20
562.100000
0
VERTEX
8
0
10
636.700000
20
568.900000
0
VERTEX
8
0
10
631.420000
20
592.060000
0
VERTEX
8
0
10
631.000000
20
598.000000
0
VERTEX
8
0
10
630.000000
20
599.000000
0
VERTEX
8
0
10
629.000000
20
598.000000
0
VERTEX
8
0
10
625.000000
20
598.000000
0
VERTEX
8
0
10
616.000000
20
602.000000
0
VERTEX
8
0
10
615.800000
20
602.900000
0
VERTEX
8
0
10
615.553846
20
603.569231
0
VERTEX
8
0
10
623.200000
20
612.900000
0
VERTEX
8
0
10
625.569231
20
618.053846
0
VERTEX
8
0
10
626.430769
20
624.946154
0
VERTEX
8
0
10
627.250000
20
640.750000
0
VERTEX
8
0
10
639.000000
20
641.000000
0
VERTEX
8
0
10
640.000000
20
642.000000
0
VERTEX
8
0
10
642.000000
20
650.000000
0
VERTEX
8
0
10
645.000000
20
653.000000
0
VERTEX
8
0
10
647.100000
20
653.700000
0
VERTEX
8
0
10
653.750000
20
655.250000
0
VERTEX
8
0
10
655.445545
20
700.955446
0
VERTEX
8
0
10
656.700000
20
706.100000
0
VERTEX
8
0
10
661.200000
20
717.900000
0
VERTEX
8
0
10
667.000000
20
729.000000
0
VERTEX
8
0
10
667.000000
20
737.000000
0
VERTEX
8
0
10
664.800000
20
743.900000
0
VERTEX
8
0
10
662.800000
20
747.900000
0
VERTEX
8
0
10
651.000000
20
773.000000
0
VERTEX
8
0
10
651.000000
20
787.000000
0
VERTEX
8
0
10
653.405405
20
798.932432
0
VERTEX
8
0
10
654.000000
20
800.000000
0
VERTEX
8
0
10
654.000000
20
813.000000
0
VERTEX
8
0
10
652.647059
20
816.911765
0
VERTEX
8
0
10
652.300000
20
818.100000
0
VERTEX
8
0
10
648.760000
20
825.820000
0
VERTEX
8
0
10
639.000000
20
838.000000
0
VERTEX
8
0
10
622.180000
20
853.240000
0
VERTEX
8
0
10
613.000000
20
860.000000
0
VERTEX
8
0
10
614.700000
20
866.100000
0
VERTEX
8
0
10
617.352941
20
874.911765
0
VERTEX
8
0
10
645.300000
20
945.900000
0
VERTEX
8
0
10
650.200000
20
959.900000
0
VERTEX
8
0
10
653.000000
20
966.000000
0
VERTEX
8
0
10
653.000000
20
971.000000
0
VERTEX
8
0
10
651.000000
20
973.000000
0
VERTEX
8
0
10
646.000000
20
974.000000
0
VERTEX
8
0
10
639.911765
20
973.352941
0
VERTEX
8
0
10
632.911765
20
971.352941
0
VERTEX
8
0
10
624.000000
20
969.000000
0
VERTEX
8
0
10
623.000000
20
971.000000
0
VERTEX
8
0
10
630.230769
20
981.846154
0
VERTEX
8
0
10
632.200000
20
984.900000
0
VERTEX
8
0
10
633.000000
20
986.000000
0
VERTEX
8
0
10
633.000000
20
989.000000
0
VERTEX
8
0
10
626.800000
20
1001.900000
0
VERTEX
8
0
10
615.352941
20
1026.088235
0
VERTEX
8
0
10
611.000000
20
1042.000000
0
VERTEX
8
0
10
608.000000
20
1045.000000
0
VERTEX
8
0
10
601.900000
20
1047.800000
0
VERTEX
8
0
10
592.640000
20
1054.520000
0
VERTEX
8
0
10
589.911765
20
1055.647059
0
VERTEX
8
0
10
583.000000
20
1057.000000
0
VERTEX
8
0
10
573.100000
20
1052.700000
0
VERTEX
8
0
10
565.900000
20
1049.200000
0
VERTEX
8
0
10
552.000000
20
1045.000000
0
VERTEX
8
0
10
549.000000
20
1042.000000
0
VERTEX
8
0
10
543.200000
20
1032.900000
0
VERTEX
8
0
10
542.800000
20
1032.100000
0
VERTEX
8
0
10
536.647059
20
1017.088235
0
VERTEX
8
0
10
532.352941
20
1002.911765
0
VERTEX
8
0
10
528.000000
20
991.000000
0
VERTEX
8
0
10
527.000000
20
990.000000
0
VERTEX
8
0
10
522.000000
20
1003.000000
0
VERTEX
8
0
10
519.000000
20
1006.000000
0
VERTEX
8
0
10
511.000000
20
1009.000000
0
VERTEX
8
0
10
509.700000
20
1006.100000
0
VERTEX
8
0
10
506.487196
20
991.987820
0
VERTEX
8
0
10
505.512804
20
953.012180
0
VERTEX
8
0
10
504.549180
20
942.040984
0
VERTEX
8
0
10
502.615385
20
932.076923
0
VERTEX
8
0
10
496.615385
20
901.076923
0
VERTEX
8
0
10
482.700000
20
854.100000
0
VERTEX
8
0
10
480.200000
20
846.900000
0
VERTEX
8
0
10
472.769231
20
826.153846
0
VERTEX
8
0
10
471.230769
20
823.846154
0
VERTEX
8
0
10
468.000000
20
819.000000
0
VERTEX
8
0
10
462.000000
20
813.000000
0
VERTEX
8
0
10
441.900000
20
799.200000
0
VERTEX
8
0
10
441.100000
20
798.800000
0
VERTEX
8
0
10
414.900000
20
787.300000
0
VERTEX
8
0
10
413.100000
20
786.700000
0
VERTEX
8
0
10
371.088235
20
775.647059
0
VERTEX
8
0
10
348.000000
20
769.000000
0
VERTEX
8
0
10
341.000000
20
769.000000
0
VERTEX
8
0
10
330.100000
20
771.300000
0
VERTEX
8
0
10
326.088235
20
772.352941
0
VERTEX
8
0
10
315.100000
20
777.200000
0
VERTEX
8
0
10
313.100000
20
778.200000
0
VERTEX
8
0
10
304.204918
20
784.245902
0
VERTEX
8
0
10
295.000000
20
792.000000
0
VERTEX
8
0
10
286.230769
20
804.153846
0
VERTEX
8
0
10
284.230769
20
807.153846
0
VERTEX
8
0
10
279.352941
20
818.088235
0
VERTEX
8
0
10
277.647059
20
824.911765
0
VERTEX
8
0
10
275.490008
20
843.009608
0
VERTEX
8
0
10
274.509992
20
892.990392
0
VERTEX
8
0
10
273.554455
20
902.955446
0
VERTEX
8
0
10
266.700000
20
930.900000
0
VERTEX
8
0
10
261.300000
20
947.100000
0
VERTEX
8
0
10
256.405405
20
964.067568
0
VERTEX
8
0
10
255.594595
20
968.932432
0
VERTEX
8
0
10
251.700000
20
981.900000
0
VERTEX
8
0
10
251.300000
20
983.100000
0
VERTEX
8
0
10
246.200000
20
993.100000
0
VERTEX
8
0
10
233.000000
20
1011.000000
0
VERTEX
8
0
10
224.000000
20
1020.000000
0
VERTEX
8
0
10
207.900000
20
1030.800000
0
VERTEX
8
0
10
197.900000
20
1035.800000
0
VERTEX
8
0
10
175.088235
20
1042.352941
0
VERTEX
8
0
10
167.000000
20
1044.000000
0
VERTEX
8
0
10
184.230769
20
1063.846154
0
VERTEX
8
0
10
187.769231
20
1069.153846
0
VERTEX
8
0
10
193.700000
20
1084.100000
0
VERTEX
8
0
10
194.300000
20
1085.900000
0
VERTEX
8
0
10
195.000000
20
1087.000000
0
VERTEX
8
0
10
195.000000
20
1098.000000
0
VERTEX
8
0
10
194.300000
20
1099.100000
0
VERTEX
8
0
10
191.000000
20
1105.000000
0
VERTEX
8
0
10
187.000000
20
1109.000000
0
VERTEX
8
0
10
183.900000
20
1108.200000
0
VERTEX
8
0
10
183.000000
20
1108.000000
0
VERTEX
8
0
10
178.800000
20
1100.100000
0
VERTEX
8
0
10
178.300000
20
1098.900000
0
VERTEX
8
0
10
177.000000
20
1094.000000
0
VERTEX
8
0
10
175.000000
20
1092.000000
0
VERTEX
8
0
10
167.000000
20
1089.000000
0
VERTEX
8
0
10
166.250000
20
1089.250000
0
VERTEX
8
0
10
164.554455
20
1105.955446
0
VERTEX
8
0
10
162.756098
20
1115.804878
0
VERTEX
8
0
10
159.000000
20
1121.000000
0
VERTEX
8
0
10
155.100000
20
1124.200000
0
VERTEX
8
0
10
152.000000
20
1125.000000
0
VERTEX
8
0
10
148.000000
20
1122.000000
0
VERTEX
8
0
10
145.352941
20
1108.911765
0
VERTEX
8
0
10
143.000000
20
1102.000000
0
VERTEX
8
0
10
142.000000
20
1101.000000
0
VERTEX
8
0
10
135.000000
20
1100.000000
0
VERTEX
8
0
10
134.000000
20
1101.000000
0
VERTEX
8
0
10
133.615385
20
1104.923077
0
VERTEX
8
0
10
131.000000
20
1116.000000
0
VERTEX
8
0
10
128.180000
20
1118.240000
0
VERTEX
8
0
10
125.000000
20
1121.000000
0
VERTEX
8
0
10
119.000000
20
1121.000000
0
VERTEX
8
0
10
117.000000
20
1119.000000
0
VERTEX
8
0
10
115.352941
20
1109.911765
0
VERTEX
8
0
10
113.000000
20
1102.000000
0
VERTEX
8
0
10
109.000000
20
1098.000000
0
VERTEX
8
0
10
96.000000
20
1112.000000
0
VERTEX
8
0
10
93.900000
20
1112.800000
0
VERTEX
8
0
10
90.000000
20
1114.000000
0
VERTEX
8
0
10
88.000000
20
1113.000000
0
VERTEX
8
0
10
84.800000
20
1108.100000
0
VERTEX
8
0
10
82.420000
20
1099.940000
0
VERTEX
8
0
10
81.580000
20
1094.060000
0
VERTEX
8
0
10
79.000000
20
1088.000000
0
VERTEX
8
0
10
78.000000
20
1087.000000
0
VERTEX
8
0
10
72.000000
20
1087.000000
0
VERTEX
8
0
10
65.060000
20
1088.420000
0
VERTEX
8
0
10
57.000000
20
1089.000000
0
VERTEX
8
0
10
56.000000
20
1088.000000
0
VERTEX
8
0
10
56.000000
20
1070.000000
0
VERTEX
8
0
10
59.000000
20
1053.000000
0
VERTEX
8
0
10
55.100000
20
1050.800000
0
VERTEX
8
0
10
53.000000
20
1050.000000
0
VERTEX
8
0
10
46.800000
20
1042.100000
0
VERTEX
8
0
10
46.200000
20
1040.900000
0
VERTEX
8
0
10
42.000000
20
1028.000000
0
VERTEX
8
0
10
42.000000
20
1006.000000
0
VERTEX
8
0
10
45.000000
20
995.000000
0
VERTEX
8
0
10
40.180000
20
990.760000
0
VERTEX
8
0
10
36.000000
20
988.000000
0
VERTEX
8
0
10
33.800000
20
985.100000
0
VERTEX
8
0
10
32.800000
20
983.100000
0
VERTEX
8
0
10
29.384615
20
975.923077
0
VERTEX
8
0
10
28.615385
20
972.076923
0
VERTEX
8
0
10
28.000000
20
964.000000
0
VERTEX
8
0
10
30.000000
20
962.000000
0
VERTEX
8
0
10
42.100000
20
965.700000
0
VERTEX
8
0
10
51.000000
20
968.000000
0
VERTEX
8
0
10
57.000000
20
968.000000
0
VERTEX
8
0
10
65.000000
20
963.000000
0
VERTEX
8
0
10
67.569231
20
941.946154
0
VERTEX
8
0
10
70.000000
20
916.000000
0
VERTEX
8
0
10
80.750943
20
904.771698
0
VERTEX
8
0
10
82.769231
20
901.846154
0
VERTEX
8
0
10
90.000000
20
892.000000
0
VERTEX
8
0
10
87.300000
20
883.900000
0
VERTEX
8
0
10
84.307692
20
874.461538
0
VERTEX
8
0
10
79.247059
20
867.788235
0
VERTEX
8
0
10
77.352941
20
863.911765
0
VERTEX
8
0
10
73.647059
20
850.088235
0
VERTEX
8
0
10
67.405405
20
825.932432
0
VERTEX
8
0
10
63.405405
20
805.932432
0
VERTEX
8
0
10
52.569231
20
737.053846
0
VERTEX
8
0
10
49.000000
20
686.000000
0
VERTEX
8
0
10
49.000000
20
649.000000
0
VERTEX
8
0
10
55.384615
20
612.076923
0
VERTEX
8
0
10
55.549180
20
610.959016
0
VERTEX
8
0
10
58.000000
20
591.000000
0
VERTEX
8
0
10
57.000000
20
590.000000
0
VERTEX
8
0
10
57.000000
20
586.000000
0
VERTEX
8
0
10
65.800000
20
565.900000
0
VERTEX
8
0
10
78.240000
20
548.180000
0
VERTEX
8
0
10
80.760000
20
544.820000
0
VERTEX
8
0
10
132.230769
20
489.153846
0
VERTEX
8
0
10
135.000000
20
484.000000
0
VERTEX
8
0
10
140.846154
20
479.769231
0
VERTEX
8
0
10
145.900000
20
476.800000
0
VERTEX
8
0
10
152.000000
20
473.000000
0
VERTEX
8
0
10
156.769231
20
465.846154
0
VERTEX
8
0
10
158.000000
20
463.000000
0
VERTEX
8
0
10
169.788235
20
452.752941
0
VERTEX
8
0
10
208.000000
20
420.000000
0
VERTEX
8
0
10
216.800000
20
404.900000
0
VERTEX
8
0
10
221.594595
20
387.932432
0
VERTEX
8
0
10
223.000000
20
383.500000
0
VERTEX
8
0
10
227.243902
20
377.195122
0
VERTEX
8
0
10
230.756098
20
372.804878
0
VERTEX
8
0
10
233.000000
20
368.000000
0
VERTEX
8
0
10
240.000000
20
361.000000
0
VERTEX
8
0
10
243.153846
20
359.230769
0
VERTEX
8
0
10
243.900000
20
358.800000
0
VERTEX
8
0
10
253.088235
20
355.352941
0
VERTEX
8
0
10
258.000000
20
354.000000
0
VERTEX
8
0
10
261.000000
20
351.000000
0
VERTEX
8
0
10
264.769231
20
343.846154
0
VERTEX
8
0
10
266.000000
20
341.000000
0
VERTEX
8
0
10
277.900000
20
331.800000
0
VERTEX
8
0
10
279.100000
20
331.200000
0
VERTEX
8
0
10
288.000000
20
326.000000
0
VERTEX
8
0
10
297.000000
20
317.000000
0
VERTEX
8
0
10
297.000000
20
311.000000
0
VERTEX
8
0
10
290.647059
20
285.088235
0
VERTEX
8
0
10
285.700000
20
269.100000
0
VERTEX
8
0
10
275.200000
20
231.900000
0
VERTEX
8
0
10
270.200000
20
217.900000
0
VERTEX
8
0
10
263.769231
20
202.153846
0
VERTEX
8
0
10
251.000000
20
184.000000
0
VERTEX
8
0
10
237.153846
20
179.769231
0
VERTEX
8
0
10
227.820000
20
173.240000
0
VERTEX
8
0
10
219.900000
20
168.200000
0
VERTEX
8
0
10
215.900000
20
166.300000
0
VERTEX
8
0
10
212.000000
20
165.000000
0
VERTEX
8
0
10
209.000000
20
167.000000
0
VERTEX
8
0
10
208.769231
20
167.846154
0
VERTEX
8
0
10
203.000000
20
177.000000
0
VERTEX
8
0
10
199.000000
20
178.000000
0
VERTEX
8
0
10
197.000000
20
176.000000
0
VERTEX
8
0
10
203.230769
20
165.153846
0
VERTEX
8
0
10
206.240000
20
160.180000
0
VERTEX
8
0
10
211.000000
20
153.000000
0
VERTEX
8
0
10
207.932432
20
151.405405
0
VERTEX
8
0
10
203.067568
20
150.594595
0
VERTEX
8
0
10
155.060000
20
146.580000
0
VERTEX
8
0
10
144.000000
20
144.000000
0
VERTEX
8
0
10
143.000000
20
143.000000
0
VERTEX
8
0
10
144.000000
20
142.000000
0
VERTEX
8
0
10
187.989141
20
141.511352
0
VERTEX
8
0
10
205.973846
20
140.529231
0
VERTEX
8
0
10
234.000000
20
140.000000
0
VERTEX
8
0
10
237.200000
20
144.900000
0
VERTEX
8
0
10
240.800000
20
153.100000
0
VERTEX
8
0
10
246.000000
20
159.000000
0
VERTEX
8
0
10
257.000000
20
159.000000
0
VERTEX
8
0
10
258.000000
20
158.000000
0
VERTEX
8
0
10
259.000000
20
159.000000
0
VERTEX
8
0
10
259.000000
20
163.000000
0
VERTEX
8
0
10
255.900000
20
164.800000
0
VERTEX
8
0
10
252.000000
20
168.000000
0
VERTEX
8
0
10
253.000000
20
169.000000
0
VERTEX
8
0
10
262.000000
20
169.000000
0
VERTEX
8
0
10
263.000000
20
168.000000
0
VERTEX
8
0
10
263.250000
20
158.250000
0
VERTEX
8
0
10
268.000000
20
159.000000
0
VERTEX
8
0
10
272.240000
20
165.820000
0
VERTEX
8
0
10
275.000000
20
169.000000
0
VERTEX
8
0
10
269.900000
20
171.800000
0
VERTEX
8
0
10
267.000000
20
173.000000
0
VERTEX
8
0
10
261.000000
20
181.000000
0
VERTEX
8
0
10
262.900000
20
182.200000
0
VERTEX
8
0
10
264.000000
20
183.000000
0
VERTEX
8
0
10
268.000000
20
183.000000
0
VERTEX
8
0
10
270.900000
20
181.700000
0
VERTEX
8
0
10
272.000000
20
181.000000
0
VERTEX
8
0
10
277.000000
20
181.000000
0
VERTEX
8
0
10
279.000000
20
183.000000
0
VERTEX
8
0
10
279.000000
20
186.000000
0
VERTEX
8
0
10
277.000000
20
188.000000
0
VERTEX
8
0
10
267.000000
20
188.000000
0
VERTEX
8
0
10
266.000000
20
189.000000
0
VERTEX
8
0
10
276.800000
20
214.100000
0
VERTEX
8
0
10
281.000000
20
221.000000
0
VERTEX
8
0
10
283.000000
20
223.000000
0
VERTEX
8
0
10
298.900000
20
220.800000
0
VERTEX
8
0
10
302.000000
20
219.000000
0
VERTEX
8
0
10
299.647059
20
212.088235
0
VERTEX
8
0
10
299.000000
20
207.000000
0
VERTEX
8
0
10
301.700000
20
194.900000
0
VERTEX
8
0
10
310.800000
20
178.900000
0
VERTEX
8
0
10
312.200000
20
176.100000
0
VERTEX
8
0
10
315.000000
20
171.000000
0
VERTEX
8
0
10
309.000000
20
169.000000
0
VERTEX
8
0
10
306.000000
20
169.000000
0
VERTEX
8
0
10
293.660377
20
175.811321
0
VERTEX
8
0
10
279.204918
20
164.754098
0
VERTEX
8
0
10
267.900000
20
156.200000
0
VERTEX
8
0
10
263.900000
20
154.300000
0
VERTEX
8
0
10
260.000000
20
153.000000
0
VERTEX
8
0
10
256.000000
20
149.000000
0
VERTEX
8
0
10
258.900000
20
146.800000
0
VERTEX
8
0
10
260.088235
20
146.352941
0
VERTEX
8
0
10
266.000000
20
145.000000
0
VERTEX
8
0
10
270.846154
20
147.230769
0
VERTEX
8
0
10
292.000000
20
162.000000
0
VERTEX
8
0
10
298.000000
20
162.000000
0
VERTEX
8
0
10
313.000000
20
152.000000
0
VERTEX
8
0
10
319.076923
20
152.615385
0
VERTEX
8
0
10
376.088235
20
158.647059
0
VERTEX
8
0
10
385.900000
20
162.200000
0
VERTEX
8
0
10
389.000000
20
164.000000
0
VERTEX
8
0
10
388.000000
20
165.000000
0
VERTEX
8
0
10
358.000000
20
165.000000
0
VERTEX
8
0
10
357.000000
20
164.000000
0
VERTEX
8
0
10
325.000000
20
164.000000
0
VERTEX
8
0
10
323.000000
20
166.000000
0
VERTEX
8
0
10
323.000000
20
167.000000
0
VERTEX
8
0
10
331.000000
20
175.000000
0
VERTEX
8
0
10
338.100000
20
178.800000
0
VERTEX
8
0
10
344.900000
20
181.300000
0
VERTEX
8
0
10
352.846154
20
186.230769
0
VERTEX
8
0
10
356.000000
20
188.000000
0
VERTEX
8
0
10
359.230769
20
191.846154
0
VERTEX
8
0
10
360.769231
20
194.153846
0
VERTEX
8
0
10
362.000000
20
197.000000
0
VERTEX
8
0
10
361.000000
20
198.000000
0
VERTEX
8
0
10
346.900000
20
193.300000
0
VERTEX
8
0
10
345.100000
20
192.700000
0
VERTEX
8
0
10
330.180000
20
185.760000
0
VERTEX
8
0
10
326.820000
20
183.240000
0
VERTEX
8
0
10
320.900000
20
179.800000
0
VERTEX
8
0
10
320.000000
20
180.000000
0
VERTEX
8
0
10
318.769231
20
181.846154
0
VERTEX
8
0
10
314.800000
20
187.900000
0
VERTEX
8
0
10
311.000000
20
196.000000
0
VERTEX
8
0
10
311.000000
20
215.000000
0
VERTEX
8
0
10
314.405405
20
236.932432
0
VERTEX
8
0
10
314.615385
20
238.076923
0
VERTEX
8
0
10
321.300000
20
259.900000
0
VERTEX
8
0
10
325.300000
20
270.900000
0
VERTEX
8
0
10
335.200000
20
297.900000
0
VERTEX
8
0
10
341.800000
20
311.100000
0
VERTEX
8
0
10
343.000000
20
315.000000
0
VERTEX
8
0
10
341.000000
20
319.000000
0
VERTEX
8
0
10
344.000000
20
334.000000
0
VERTEX
8
0
10
347.900000
20
335.200000
0
VERTEX
8
0
10
349.000000
20
336.000000
0
VERTEX
8
0
10
367.000000
20
336.000000
0
VERTEX
8
0
10
368.000000
20
335.000000
0
VERTEX
8
0
10
371.000000
20
335.000000
0
VERTEX
8
0
10
373.900000
20
337.200000
0
VERTEX
8
0
10
375.900000
20
338.200000
0
VERTEX
8
0
10
379.000000
20
340.000000
0
VERTEX
8
0
10
381.000000
20
345.000000
0
VERTEX
8
0
10
380.200000
20
346.100000
0
VERTEX
8
0
10
378.000000
20
351.000000
0
VERTEX
8
0
10
363.000000
20
366.000000
0
VERTEX
8
0
10
357.000000
20
370.000000
0
VERTEX
8
0
10
353.200000
20
379.100000
0
VERTEX
8
0
10
350.000000
20
383.000000
0
VERTEX
8
0
10
347.250000
20
382.750000
0
VERTEX
8
0
10
347.000000
20
382.000000
0
VERTEX
8
0
10
350.200000
20
372.100000
0
VERTEX
8
0
10
359.300000
20
358.100000
0
VERTEX
8
0
10
360.000000
20
357.000000
0
VERTEX
8
0
10
359.000000
20
350.000000
0
VERTEX
8
0
10
357.000000
20
349.000000
0
VERTEX
8
0
10
352.000000
20
353.000000
0
VERTEX
8
0
10
350.352941
20
358.088235
0
VERTEX
8
0
10
348.000000
20
371.000000
0
VERTEX
8
0
10
347.000000
20
372.000000
0
VERTEX
8
0
10
342.000000
20
371.000000
0
VERTEX
8
0
10
340.911765
20
371.647059
0
VERTEX
8
0
10
338.000000
20
372.000000
0
VERTEX
8
0
10
332.000000
20
378.000000
0
VERTEX
8
0
10
329.240000
20
382.180000
0
VERTEX
8
0
10
327.000000
20
385.000000
0
VERTEX
8
0
10
322.000000
20
380.000000
0
VERTEX
8
0
10
319.200000
20
386.100000
0
VERTEX
8
0
10
316.000000
20
393.000000
0
VERTEX
8
0
10
313.000000
20
396.000000
0
VERTEX
8
0
10
312.000000
20
396.000000
0
VERTEX
8
0
10
311.000000
20
395.000000
0
VERTEX
8
0
10
311.000000
20
387.000000
0
VERTEX
8
0
10
309.000000
20
386.000000
0
VERTEX
8
0
10
305.769231
20
392.846154
0
VERTEX
8
0
10
303.760000
20
395.820000
0
VERTEX
8
0
10
300.000000
20
401.000000
0
VERTEX
8
0
10
298.250000
20
400.750000
0
VERTEX
8
0
10
298.300000
20
398.100000
0
VERTEX
8
0
10
299.000000
20
397.000000
0
VERTEX
8
0
10
299.000000
20
391.000000
0
VERTEX
8
0
10
298.000000
20
390.000000
0
VERTEX
8
0
10
294.800000
20
393.900000
0
VERTEX
8
0
10
293.700000
20
396.900000
0
VERTEX
8
0
10
292.000000
20
400.000000
0
VERTEX
8
0
10
290.000000
20
401.000000
0
VERTEX
8
0
10
287.000000
20
401.000000
0
VERTEX
8
0
10
286.000000
20
400.000000
0
VERTEX
8
0
10
286.800000
20
397.900000
0
VERTEX
8
0
10
289.000000
20
394.000000
0
VERTEX
8
0
10
287.100000
20
392.800000
0
VERTEX
8
0
10
284.100000
20
393.200000
0
VERTEX
8
0
10
282.000000
20
394.000000
0
VERTEX
8
0
10
275.800000
20
403.900000
0
VERTEX
8
0
10
275.200000
20
405.100000
0
VERTEX
8
0
10
274.000000
20
408.000000
0
VERTEX
8
0
10
271.000000
20
411.000000
0
VERTEX
8
0
10
268.000000
20
411.000000
0
VERTEX
8
0
10
264.100000
20
408.800000
0
VERTEX
8
0
10
258.000000
20
406.000000
0
VERTEX
8
0
10
257.000000
20
406.000000
0
VERTEX
8
0
10
255.000000
20
408.000000
0
VERTEX
8
0
10
252.200000
20
417.100000
0
VERTEX
8
0
10
250.000000
20
423.000000
0
VERTEX
8
0
10
245.000000
20
428.000000
0
VERTEX
8
0
10
243.000000
20
426.000000
0
VERTEX
8
0
10
244.700000
20
420.900000
0
VERTEX
8
0
10
246.000000
20
418.000000
0
VERTEX
8
0
10
246.000000
20
414.000000
0
VERTEX
8
0
10
245.000000
20
413.000000
0
VERTEX
8
0
10
241.000000
20
416.000000
0
VERTEX
8
0
10
234.247788
20
424.216814
0
VERTEX
8
0
10
230.200000
20
432.100000
0
VERTEX
8
0
10
229.800000
20
432.900000
0
VERTEX
8
0
10
228.000000
20
436.000000
0
VERTEX
8
0
10
225.000000
20
436.000000
0
VERTEX
8
0
10
220.000000
20
431.000000
0
VERTEX
8
0
10
215.000000
20
436.000000
0
VERTEX
8
0
10
215.000000
20
437.000000
0
VERTEX
8
0
10
211.000000
20
441.000000
0
VERTEX
8
0
10
208.000000
20
442.000000
0
VERTEX
8
0
10
204.000000
20
442.000000
0
VERTEX
8
0
10
200.000000
20
440.000000
0
VERTEX
8
0
10
178.000000
20
462.000000
0
VERTEX
8
0
10
182.300000
20
467.900000
0
VERTEX
8
0
10
183.000000
20
469.000000
0
VERTEX
8
0
10
180.300000
20
481.100000
0
VERTEX
8
0
10
179.700000
20
482.900000
0
VERTEX
8
0
10
178.439024
20
487.048780
0
VERTEX
8
0
10
177.000000
20
502.000000
0
VERTEX
8
0
10
176.000000
20
503.000000
0
VERTEX
8
0
10
168.076923
20
504.384615
0
VERTEX
8
0
10
163.000000
20
506.000000
0
VERTEX
8
0
10
152.000000
20
505.000000
0
VERTEX
8
0
10
150.800000
20
506.900000
0
VERTEX
8
0
10
149.300000
20
511.100000
0
VERTEX
8
0
10
149.000000
20
513.000000
0
VERTEX
8
0
10
144.000000
20
517.000000
0
VERTEX
8
0
10
143.000000
20
516.000000
0
VERTEX
8
0
10
146.700000
20
505.900000
0
VERTEX
8
0
10
148.000000
20
501.000000
0
VERTEX
8
0
10
150.000000
20
499.000000
0
VERTEX
8
0
10
164.100000
20
494.200000
0
VERTEX
8
0
10
172.000000
20
488.000000
0
VERTEX
8
0
10
175.000000
20
480.000000
0
VERTEX
8
0
10
173.300000
20
476.900000
0
VERTEX
8
0
10
173.000000
20
475.000000
0
VERTEX
8
0
10
171.000000
20
474.000000
0
VERTEX
8
0
10
166.900000
20
475.700000
0
VERTEX
8
0
10
160.180000
20
479.240000
0
VERTEX
8
0
10
153.000000
20
485.000000
0
VERTEX
8
0
10
141.000000
20
508.000000
0
VERTEX
8
0
10
131.000000
20
513.000000
0
VERTEX
8
0
10
129.000000
20
515.000000
0
VERTEX
8
0
10
113.000000
20
537.000000
0
VERTEX
8
0
10
105.000000
20
544.000000
0
VERTEX
8
0
10
104.000000
20
543.000000
0
VERTEX
8
0
10
105.200000
20
539.100000
0
VERTEX
8
0
10
110.760000
20
530.820000
0
VERTEX
8
0
10
114.000000
20
525.000000
0
VERTEX
8
0
10
113.000000
20
524.000000
0
VERTEX
8
0
10
109.000000
20
527.000000
0
VERTEX
8
0
10
98.000000
20
538.000000
0
VERTEX
8
0
10
92.240000
20
546.180000
0
VERTEX
8
0
10
86.240000
20
554.180000
0
VERTEX
8
0
10
78.200000
20
570.100000
0
VERTEX
8
0
10
75.800000
20
574.900000
0
VERTEX
8
0
10
66.352941
20
603.088235
0
VERTEX
8
0
10
63.615385
20
615.923077
0
VERTEX
8
0
10
59.450820
20
638.040984
0
VERTEX
8
0
10
57.541176
20
660.964706
0
VERTEX
8
0
10
57.000000
20
699.000000
0
VERTEX
8
0
10
58.477358
20
721.979245
0
VERTEX
8
0
10
64.420000
20
764.940000
0
VERTEX
8
0
10
67.384615
20
783.923077
0
VERTEX
8
0
10
79.352941
20
833.911765
0
VERTEX
8
0
10
91.700000
20
871.100000
0
VERTEX
8
0
10
99.000000
20
890.000000
0
VERTEX
8
0
10
103.100000
20
891.800000
0
VERTEX
8
0
10
107.804878
20
894.243902
0
VERTEX
8
0
10
117.000000
20
902.000000
0
VERTEX
8
0
10
126.240000
20
916.820000
0
VERTEX
8
0
10
132.000000
20
925.000000
0
VERTEX
8
0
10
134.000000
20
924.000000
0
VERTEX
8
0
10
136.230769
20
919.153846
0
VERTEX
8
0
10
140.000000
20
914.000000
0
VERTEX
8
0
10
144.088235
20
914.647059
0
VERTEX
8
0
10
157.000000
20
919.000000
0
VERTEX
8
0
10
165.754098
20
929.204918
0
VERTEX
8
0
10
169.800000
20
937.100000
0
VERTEX
8
0
10
170.200000
20
937.900000
0
VERTEX
8
0
10
175.647059
20
951.088235
0
VERTEX
8
0
10
176.352941
20
953.911765
0
VERTEX
8
0
10
182.800000
20
969.100000
0
VERTEX
8
0
10
183.240000
20
969.820000
0
VERTEX
8
0
10
191.000000
20
980.000000
0
VERTEX
8
0
10
191.000000
20
984.000000
0
VERTEX
8
0
10
188.647059
20
990.911765
0
VERTEX
8
0
10
186.000000
20
998.000000
0
VERTEX
8
0
10
181.100000
20
1002.200000
0
VERTEX
8
0
10
178.000000
20
1004.000000
0
VERTEX
8
0
10
174.000000
20
1004.000000
0
VERTEX
8
0
10
170.000000
20
1002.000000
0
VERTEX
8
0
10
168.800000
20
1000.100000
0
VERTEX
8
0
10
168.000000
20
998.000000
0
VERTEX
8
0
10
178.300000
20
984.100000
0
VERTEX
8
0
10
179.000000
20
983.000000
0
VERTEX
8
0
10
179.000000
20
981.000000
0
VERTEX
8
0
10
166.000000
20
969.000000
0
VERTEX
8
0
10
159.000000
20
954.000000
0
VERTEX
8
0
10
159.000000
20
949.000000
0
VERTEX
8
0
10
160.000000
20
948.000000
0
VERTEX
8
0
10
160.000000
20
943.000000
0
VERTEX
8
0
10
151.000000
20
931.000000
0
VERTEX
8
0
10
148.000000
20
930.000000
0
VERTEX
8
0
10
143.000000
20
934.000000
0
VERTEX
8
0
10
142.200000
20
936.100000
0
VERTEX
8
0
10
141.800000
20
936.900000
0
VERTEX
8
0
10
141.000000
20
938.000000
0
VERTEX
8
0
10
141.000000
20
941.000000
0
VERTEX
8
0
10
152.000000
20
956.000000
0
VERTEX
8
0
10
151.000000
20
963.000000
0
VERTEX
8
0
10
150.000000
20
964.000000
0
VERTEX
8
0
10
130.900000
20
949.200000
0
VERTEX
8
0
10
130.100000
20
948.800000
0
VERTEX
8
0
10
127.000000
20
947.000000
0
VERTEX
8
0
10
125.000000
20
947.000000
0
VERTEX
8
0
10
120.000000
20
952.000000
0
VERTEX
8
0
10
120.000000
20
953.000000
0
VERTEX
8
0
10
114.153846
20
958.230769
0
VERTEX
8
0
10
101.000000
20
966.000000
0
VERTEX
8
0
10
101.000000
20
967.000000
0
VERTEX
8
0
10
102.900000
20
968.200000
0
VERTEX
8
0
10
104.067568
20
968.594595
0
VERTEX
8
0
10
109.000000
20
969.000000
0
VERTEX
8
0
10
111.000000
20
971.000000
0
VERTEX
8
0
10
112.000000
20
974.000000
0
VERTEX
8
0
10
110.100000
20
975.200000
0
VERTEX
8
0
10
102.932432
20
977.594595
0
VERTEX
8
0
10
98.067568
20
978.405405
0
VERTEX
8
0
10
78.000000
20
981.000000
0
VERTEX
8
0
10
62.000000
20
981.000000
0
VERTEX
8
0
10
58.088235
20
979.647059
0
VERTEX
8
0
10
46.900000
20
977.200000
0
VERTEX
8
0
10
39.000000
20
974.000000
0
VERTEX
8
0
10
38.000000
20
975.000000
0
VERTEX
8
0
10
49.000000
20
987.000000
0
VERTEX
8
0
10
49.900000
20
987.200000
0
VERTEX
8
0
10
60.060000
20
991.580000
0
VERTEX
8
0
10
75.000000
20
993.000000
0
VERTEX
8
0
10
81.900000
20
1002.200000
0
VERTEX
8
0
10
86.000000
20
1005.000000
0
VERTEX
8
0
10
89.352941
20
1020.911765
0
VERTEX
8
0
10
89.800000
20
1022.100000
0
VERTEX
8
0
10
97.000000
20
1031.000000
0
VERTEX
8
0
10
102.100000
20
1033.800000
0
VERTEX
8
0
10
107.900000
20
1036.300000
0
VERTEX
8
0
10
116.053846
20
1038.569231
0
VERTEX
8
0
10
128.932432
20
1040.405405
0
VERTEX
8
0
10
130.000000
20
1041.000000
0
VERTEX
8
0
10
152.000000
20
1041.000000
0
VERTEX
8
0
10
155.795082
20
1037.754098
0
VERTEX
8
0
10
161.421348
20
1033.674157
0
VERTEX
8
0
10
196.100000
20
1023.300000
0
VERTEX
8
0
10
206.100000
20
1019.200000
0
VERTEX
8
0
10
220.000000
20
1011.000000
0
VERTEX
8
0
10
225.000000
20
1006.000000
0
VERTEX
8
0
10
231.760000
20
996.820000
0
VERTEX
8
0
10
234.800000
20
989.900000
0
VERTEX
8
0
10
237.300000
20
983.100000
0
VERTEX
8
0
10
258.647059
20
926.911765
0
VERTEX
8
0
10
261.420000
20
911.060000
0
VERTEX
8
0
10
265.455172
20
876.037931
0
VERTEX
8
0
10
267.464602
20
845.030973
0
VERTEX
8
0
10
271.405405
20
820.067568
0
VERTEX
8
0
10
276.700000
20
803.900000
0
VERTEX
8
0
10
280.230769
20
796.153846
0
VERTEX
8
0
10
281.769231
20
793.846154
0
VERTEX
8
0
10
287.000000
20
784.000000
0
VERTEX
8
0
10
293.000000
20
778.000000
0
VERTEX
8
0
10
312.100000
20
769.200000
0
VERTEX
8
0
10
319.100000
20
766.300000
0
VERTEX
8
0
10
349.088235
20
757.352941
0
VERTEX
8
0
10
360.923077
20
754.615385
0
VERTEX
8
0
10
393.100000
20
747.300000
0
VERTEX
8
0
10
411.088235
20
740.352941
0
VERTEX
8
0
10
419.846154
20
737.769231
0
VERTEX
8
0
10
446.500000
20
720.000000
0
VERTEX
8
0
10
459.846154
20
715.769231
0
VERTEX
8
0
10
466.180000
20
711.240000
0
VERTEX
8
0
10
478.100000
20
704.200000
0
VERTEX
8
0
10
479.750000
20
704.250000
0
VERTEX
8
0
10
479.200000
20
708.100000
0
VERTEX
8
0
10
478.000000
20
711.000000
0
VERTEX
8
0
10
475.000000
20
714.000000
0
VERTEX
8
0
10
463.900000
20
720.700000
0
VERTEX
8
0
10
458.900000
20
722.800000
0
VERTEX
8
0
10
452.000000
20
728.000000
0
VERTEX
8
0
10
450.000000
20
732.000000
0
VERTEX
8
0
10
436.100000
20
735.200000
0
VERTEX
8
0
10
431.900000
20
736.700000
0
VERTEX
8
0
10
426.153846
20
739.230769
0
VERTEX
8
0
10
415.195122
20
747.243902
0
VERTEX
8
0
10
410.587629
20
750.072165
0
VERTEX
8
0
10
396.911765
20
753.647059
0
VERTEX
8
0
10
377.000000
20
760.000000
0
VERTEX
8
0
10
375.000000
20
762.000000
0
VERTEX
8
0
10
420.900000
20
777.300000
0
VERTEX
8
0
10
448.153846
20
790.769231
0
VERTEX
8
0
10
451.153846
20
792.769231
0
VERTEX
8
0
10
458.776243
20
797.248619
0
VERTEX
8
0
10
479.000000
20
816.000000
0
VERTEX
8
0
10
485.800000
20
826.100000
0
VERTEX
8
0
10
486.800000
20
828.100000
0
VERTEX
8
0
10
490.647059
20
841.088235
0
VERTEX
8
0
10
491.352941
20
843.911765
0
VERTEX
8
0
10
498.594595
20
869.067568
0
VERTEX
8
0
10
504.384615
20
896.923077
0
VERTEX
8
0
10
507.569231
20
913.053846
0
VERTEX
8
0
10
513.420000
20
956.940000
0
VERTEX
8
0
10
516.549180
20
982.040984
0
VERTEX
8
0
10
517.000000
20
992.000000
0
VERTEX
8
0
10
518.000000
20
993.000000
0
VERTEX
8
0
10
522.300000
20
982.100000
0
VERTEX
8
0
10
523.200000
20
980.100000
0
VERTEX
8
0
10
527.000000
20
971.000000
0
VERTEX
8
0
10
534.000000
20
977.000000
0
VERTEX
8
0
10
536.647059
20
986.088235
0
VERTEX
8
0
10
538.384615
20
993.923077
0
VERTEX
8
0
10
543.700000
20
1023.100000
0
VERTEX
8
0
10
545.000000
20
1027.000000
0
VERTEX
8
0
10
553.820000
20
1033.240000
0
VERTEX
8
0
10
557.846154
20
1036.230769
0
VERTEX
8
0
10
570.900000
20
1043.300000
0
VERTEX
8
0
10
575.900000
20
1045.200000
0
VERTEX
8
0
10
580.000000
20
1047.000000
0
VERTEX
8
0
10
589.000000
20
1046.000000
0
VERTEX
8
0
10
590.000000
20
1045.000000
0
VERTEX
8
0
10
588.200000
20
1040.900000
0
VERTEX
8
0
10
564.800000
20
992.100000
0
VERTEX
8
0
10
533.000000
20
937.000000
0
VERTEX
8
0
10
532.000000
20
937.000000
0
VERTEX
8
0
10
531.000000
20
938.000000
0
VERTEX
8
0
10
531.000000
20
947.000000
0
VERTEX
8
0
10
530.000000
20
948.000000
0
VERTEX
8
0
10
528.000000
20
947.000000
0
VERTEX
8
0
10
527.000000
20
936.000000
0
VERTEX
8
0
10
528.352941
20
932.088235
0
VERTEX
8
0
10
528.647059
20
930.911765
0
VERTEX
8
0
10
531.000000
20
922.000000
0
VERTEX
8
0
10
529.800000
20
920.100000
0
VERTEX
8
0
10
525.000000
20
901.000000
0
VERTEX
8
0
10
525.000000
20
893.000000
0
VERTEX
8
0
10
526.000000
20
891.000000
0
VERTEX
8
0
10
528.000000
20
890.000000
0
VERTEX
8
0
10
529.000000
20
891.000000
0
VERTEX
8
0
10
529.445545
20
899.955446
0
VERTEX
8
0
10
534.230769
20
907.846154
0
VERTEX
8
0
10
539.800000
20
917.100000
0
VERTEX
8
0
10
563.800000
20
978.100000
0
VERTEX
8
0
10
564.800000
20
980.100000
0
VERTEX
8
0
10
568.243902
20
985.804878
0
VERTEX
8
0
10
574.760000
20
994.180000
0
VERTEX
8
0
10
581.769231
20
1011.153846
0
VERTEX
8
0
10
586.754098
20
1017.204918
0
VERTEX
8
0
10
589.615385
20
1026.076923
0
VERTEX
8
0
10
590.384615
20
1029.923077
0
VERTEX
8
0
10
594.000000
20
1036.000000
0
VERTEX
8
0
10
601.000000
20
1041.000000
0
VERTEX
8
0
10
603.000000
20
1041.000000
0
VERTEX
8
0
10
605.000000
20
1039.000000
0
VERTEX
8
0
10
606.000000
20
1035.000000
0
VERTEX
8
0
10
605.352941
20
1029.911765
0
VERTEX
8
0
10
604.300000
20
1025.900000
0
VERTEX
8
0
10
601.000000
20
1019.000000
0
VERTEX
8
0
10
601.000000
20
1013.000000
0
VERTEX
8
0
10
603.000000
20
1011.000000
0
VERTEX
8
0
10
604.900000
20
1012.200000
0
VERTEX
8
0
10
608.000000
20
1014.000000
0
VERTEX
8
0
10
610.000000
20
1014.000000
0
VERTEX
8
0
10
612.000000
20
1012.000000
0
VERTEX
8
0
10
611.300000
20
1009.900000
0
VERTEX
8
0
10
610.700000
20
1008.100000
0
VERTEX
8
0
10
598.760000
20
991.180000
0
VERTEX
8
0
10
592.769231
20
983.153846
0
VERTEX
8
0
10
589.300000
20
976.900000
0
VERTEX
8
0
10
588.700000
20
975.100000
0
VERTEX
8
0
10
587.000000
20
966.000000
0
VERTEX
8
0
10
588.200000
20
964.100000
0
VERTEX
8
0
10
589.200000
20
962.100000
0
VERTEX
8
0
10
590.000000
20
961.000000
0
VERTEX
8
0
10
589.000000
20
960.000000
0
VERTEX
8
0
10
586.088235
20
959.647059
0
VERTEX
8
0
10
582.195122
20
957.756098
0
VERTEX
8
0
10
574.000000
20
951.000000
0
VERTEX
8
0
10
573.800000
20
950.100000
0
VERTEX
8
0
10
570.420000
20
941.940000
0
VERTEX
8
0
10
569.405405
20
934.932432
0
VERTEX
8
0
10
569.000000
20
930.000000
0
VERTEX
8
0
10
564.000000
20
926.000000
0
VERTEX
8
0
10
563.200000
20
923.900000
0
VERTEX
8
0
10
560.594595
20
912.067568
0
VERTEX
8
0
10
558.760000
20
908.180000
0
VERTEX
8
0
10
553.240000
20
900.820000
0
VERTEX
8
0
10
548.200000
20
891.900000
0
VERTEX
8
0
10
547.352941
20
889.911765
0
VERTEX
8
0
10
546.000000
20
883.000000
0
VERTEX
8
0
10
547.000000
20
880.000000
0
VERTEX
8
0
10
548.900000
20
878.800000
0
VERTEX
8
0
10
552.000000
20
878.000000
0
VERTEX
8
0
10
560.300000
20
897.900000
0
VERTEX
8
0
10
563.300000
20
904.900000
0
VERTEX
8
0
10
577.200000
20
932.900000
0
VERTEX
8
0
10
577.800000
20
934.100000
0
VERTEX
8
0
10
599.243902
20
967.804878
0
VERTEX
8
0
10
603.000000
20
972.000000
0
VERTEX
8
0
10
603.000000
20
973.000000
0
VERTEX
8
0
10
597.000000
20
979.000000
0
VERTEX
8
0
10
597.000000
20
982.000000
0
VERTEX
8
0
10
600.000000
20
985.000000
0
VERTEX
8
0
10
601.000000
20
985.000000
0
VERTEX
8
0
10
605.243902
20
989.804878
0
VERTEX
8
0
10
609.000000
20
995.000000
0
VERTEX
8
0
10
614.000000
20
998.000000
0
VERTEX
8
0
10
623.000000
20
998.000000
0
VERTEX
8
0
10
624.000000
20
997.000000
0
VERTEX
8
0
10
624.000000
20
994.000000
0
VERTEX
8
0
10
626.000000
20
992.000000
0
VERTEX
8
0
10
627.000000
20
992.000000
0
VERTEX
8
0
10
629.000000
20
990.000000
0
VERTEX
8
0
10
629.000000
20
988.000000
0
VERTEX
8
0
10
627.760000
20
986.180000
0
VERTEX
8
0
10
617.243902
20
971.804878
0
VERTEX
8
0
10
615.200000
20
967.900000
0
VERTEX
8
0
10
611.800000
20
961.100000
0
VERTEX
8
0
10
611.200000
20
943.900000
0
VERTEX
8
0
10
604.243902
20
934.804878
0
VERTEX
8
0
10
598.750000
20
919.250000
0
VERTEX
8
0
10
598.000000
20
919.000000
0
VERTEX
8
0
10
596.000000
20
919.000000
0
VERTEX
8
0
10
588.000000
20
911.000000
0
VERTEX
8
0
10
587.200000
20
906.900000
0
VERTEX
8
0
10
585.800000
20
904.100000
0
VERTEX
8
0
10
579.000000
20
892.000000
0
VERTEX
8
0
10
579.000000
20
889.000000
0
VERTEX
8
0
10
580.900000
20
887.800000
0
VERTEX
8
0
10
582.000000
20
887.000000
0
VERTEX
8
0
10
584.000000
20
888.000000
0
VERTEX
8
0
10
584.800000
20
890.100000
0
VERTEX
8
0
10
604.769231
20
921.153846
0
VERTEX
8
0
10
606.769231
20
924.153846
0
VERTEX
8
0
10
615.800000
20
940.100000
0
VERTEX
8
0
10
616.800000
20
942.100000
0
VERTEX
8
0
10
620.647059
20
955.088235
0
VERTEX
8
0
10
621.352941
20
957.911765
0
VERTEX
8
0
10
622.250000
20
960.750000
0
VERTEX
8
0
10
626.088235
20
961.647059
0
VERTEX
8
0
10
633.900000
20
964.200000
0
VERTEX
8
0
10
635.000000
20
965.000000
0
VERTEX
8
0
10
639.000000
20
965.000000
0
VERTEX
8
0
10
641.000000
20
963.000000
0
VERTEX
8
0
10
641.000000
20
959.000000
0
VERTEX
8
0
10
624.200000
20
908.900000
0
VERTEX
8
0
10
610.300000
20
874.900000
0
VERTEX
8
0
10
605.000000
20
862.000000
0
VERTEX
8
0
10
603.000000
20
860.000000
0
VERTEX
8
0
10
585.000000
20
862.000000
0
VERTEX
8
0
10
583.923077
20
861.384615
0
VERTEX
8
0
10
554.000000
20
855.000000
0
VERTEX
8
0
10
553.000000
20
856.000000
0
VERTEX
8
0
10
557.754098
20
861.204918
0
VERTEX
8
0
10
563.000000
20
869.000000
0
VERTEX
8
0
10
562.000000
20
871.000000
0
VERTEX
8
0
10
556.100000
20
867.800000
0
VERTEX
8
0
10
554.900000
20
867.200000
0
VERTEX
8
0
10
545.000000
20
858.000000
0
VERTEX
8
0
10
542.000000
20
846.000000
0
VERTEX
8
0
10
544.000000
20
844.000000
0
VERTEX
8
0
10
549.088235
20
844.647059
0
VERTEX
8
0
10
572.076923
20
850.615385
0
VERTEX
8
0
10
575.923077
20
851.384615
0
VERTEX
8
0
10
597.000000
20
857.000000
0
VERTEX
8
0
10
601.000000
20
857.000000
0
VERTEX
8
0
10
602.846154
20
855.769231
0
VERTEX
8
0
10
605.153846
20
854.230769
0
VERTEX
8
0
10
621.000000
20
844.000000
0
VERTEX
8
0
10
630.000000
20
835.000000
0
VERTEX
8
0
10
636.800000
20
821.900000
0
VERTEX
8
0
10
638.800000
20
817.900000
0
VERTEX
8
0
10
641.569231
20
805.946154
0
VERTEX
8
0
10
642.430769
20
799.053846
0
VERTEX
8
0
10
643.000000
20
791.000000
0
VERTEX
8
0
10
640.615385
20
777.076923
0
VERTEX
8
0
10
640.000000
20
776.000000
0
VERTEX
8
0
10
649.800000
20
759.900000
0
VERTEX
8
0
10
650.200000
20
759.100000
0
VERTEX
8
0
10
654.352941
20
746.088235
0
VERTEX
8
0
10
656.647059
20
735.911765
0
VERTEX
8
0
10
658.000000
20
730.000000
0
VERTEX
8
0
10
655.240000
20
726.820000
0
VERTEX
8
0
10
653.200000
20
722.900000
0
VERTEX
8
0
10
650.000000
20
716.000000
0
VERTEX
8
0
10
642.000000
20
708.000000
0
VERTEX
8
0
10
640.000000
20
708.000000
0
VERTEX
8
0
10
631.751381
20
716.776243
0
VERTEX
8
0
10
623.248619
20
726.223757
0
VERTEX
8
0
10
620.000000
20
732.000000
0
VERTEX
8
0
10
613.900000
20
734.800000
0
VERTEX
8
0
10
607.000000
20
739.000000
0
VERTEX
8
0
10
605.000000
20
744.000000
0
VERTEX
8
0
10
596.100000
20
750.200000
0
VERTEX
8
0
10
592.100000
20
752.200000
0
VERTEX
8
0
10
574.000000
20
759.000000
0
VERTEX
8
0
10
566.000000
20
759.000000
0
VERTEX
8
0
10
565.000000
20
758.000000
0
VERTEX
8
0
10
571.900000
20
754.800000
0
VERTEX
8
0
10
573.100000
20
754.200000
0
VERTEX
8
0
10
592.846154
20
743.769231
0
VERTEX
8
0
10
610.000000
20
732.000000
0
VERTEX
8
0
10
625.245902
20
715.204918
0
VERTEX
8
0
10
629.754098
20
709.795082
0
VERTEX
8
0
10
639.800000
20
693.900000
0
VERTEX
8
0
10
640.230769
20
693.153846
0
VERTEX
8
0
10
645.700000
20
682.900000
0
VERTEX
8
0
10
647.750000
20
676.250000
0
VERTEX
8
0
10
644.088235
20
675.647059
0
VERTEX
8
0
10
642.911765
20
675.352941
0
VERTEX
8
0
10
638.000000
20
674.000000
0
VERTEX
8
0
10
637.000000
20
673.000000
0
VERTEX
8
0
10
638.000000
20
672.000000
0
VERTEX
8
0
10
638.000000
20
668.000000
0
VERTEX
8
0
10
632.100000
20
664.800000
0
VERTEX
8
0
10
629.000000
20
663.000000
0
VERTEX
8
0
10
625.800000
20
656.100000
0
VERTEX
8
0
10
623.384615
20
650.923077
0
VERTEX
8
0
10
619.580000
20
625.060000
0
VERTEX
8
0
10
618.000000
20
620.000000
0
VERTEX
8
0
10
612.804878
20
616.243902
0
VERTEX
8
0
10
608.000000
20
614.000000
0
VERTEX
8
0
10
606.000000
20
614.000000
0
VERTEX
8
0
10
602.000000
20
617.000000
0
VERTEX
8
0
10
596.756098
20
623.804878
0
VERTEX
8
0
10
582.000000
20
643.000000
0
VERTEX
8
0
10
581.000000
20
642.000000
0
VERTEX
8
0
10
581.615385
20
639.923077
0
VERTEX
8
0
10
582.384615
20
636.076923
0
VERTEX
8
0
10
586.200000
20
627.100000
0
VERTEX
8
0
10
592.760000
20
617.820000
0
VERTEX
8
0
10
612.230769
20
598.153846
0
VERTEX
8
0
10
618.769231
20
588.846154
0
VERTEX
8
0
10
622.000000
20
580.000000
0
VERTEX
8
0
10
620.000000
20
567.000000
0
VERTEX
8
0
10
633.000000
20
557.000000
0
VERTEX
8
0
10
630.594595
20
541.067568
0
VERTEX
8
0
10
628.000000
20
528.000000
0
VERTEX
8
0
10
628.000000
20
520.000000
0
VERTEX
8
0
10
634.750000
20
498.250000
0
VERTEX
8
0
10
634.000000
20
498.000000
0
VERTEX
8
0
10
632.000000
20
498.000000
0
VERTEX
8
0
10
620.000000
20
477.000000
0
VERTEX
8
0
10
608.000000
20
468.000000
0
VERTEX
8
0
10
608.000000
20
466.000000
0
VERTEX
8
0
10
614.000000
20
461.000000
0
VERTEX
8
0
10
614.000000
20
459.000000
0
VERTEX
8
0
10
602.100000
20
454.700000
0
VERTEX
8
0
10
597.100000
20
452.800000
0
VERTEX
8
0
10
594.000000
20
451.000000
0
VERTEX
8
0
10
594.000000
20
446.000000
0
VERTEX
8
0
10
598.000000
20
439.000000
0
VERTEX
8
0
10
597.000000
20
438.000000
0
VERTEX
8
0
10
594.000000
20
438.000000
0
VERTEX
8
0
10
592.000000
20
436.000000
0
VERTEX
8
0
10
590.750000
20
427.250000
0
VERTEX
8
0
10
590.000000
20
427.000000
0
VERTEX
8
0
10
576.000000
20
423.000000
0
VERTEX
8
0
10
573.000000
20
420.000000
0
VERTEX
8
0
10
573.000000
20
407.000000
0
VERTEX
8
0
10
572.000000
20
406.000000
0
VERTEX
8
0
10
570.100000
20
405.700000
0
VERTEX
8
0
10
560.250000
20
403.750000
0
VERTEX
8
0
10
558.352941
20
390.911765
0
VERTEX
8
0
10
556.769231
20
386.153846
0
VERTEX
8
0
10
550.000000
20
376.000000
0
VERTEX
8
0
10
550.615385
20
370.923077
0
VERTEX
8
0
10
551.384615
20
367.076923
0
VERTEX
8
0
10
552.000000
20
359.000000
0
VERTEX
8
0
10
550.800000
20
357.100000
0
VERTEX
8
0
10
549.800000
20
355.100000
0
VERTEX
8
0
10
546.000000
20
347.000000
0
VERTEX
8
0
10
546.000000
20
339.000000
0
VERTEX
8
0
10
547.000000
20
338.000000
0
VERTEX
8
0
10
542.100000
20
335.800000
0
VERTEX
8
0
10
540.900000
20
335.200000
0
VERTEX
8
0
10
537.000000
20
332.000000
0
VERTEX
8
0
10
531.000000
20
322.000000
0
VERTEX
8
0
10
528.195122
20
319.756098
0
VERTEX
8
0
10
523.804878
20
316.243902
0
VERTEX
8
0
10
519.959016
20
314.450820
0
VERTEX
8
0
10
510.040984
20
313.549180
0
VERTEX
8
0
10
495.250000
20
313.250000
0
VERTEX
8
0
10
495.000000
20
314.000000
0
VERTEX
8
0
10
492.000000
20
320.000000
0
VERTEX
8
0
10
488.000000
20
324.000000
0
VERTEX
8
0
10
472.923077
20
325.615385
0
VERTEX
8
0
10
467.900000
20
326.700000
0
VERTEX
8
0
10
451.900000
20
332.800000
0
VERTEX
8
0
10
448.846154
20
334.769231
0
VERTEX
8
0
10
436.211765
20
343.247059
0
VERTEX
8
0
10
419.000000
20
358.000000
0
VERTEX
8
0
10
417.000000
20
358.000000
0
VERTEX
8
0
10
413.820000
20
355.240000
0
VERTEX
8
0
10
409.900000
20
353.800000
0
VERTEX
8
0
10
406.000000
20
357.000000
0
VERTEX
8
0
10
398.200000
20
371.100000
0
VERTEX
8
0
10
396.000000
20
374.000000
0
VERTEX
8
0
10
393.100000
20
372.700000
0
VERTEX
8
0
10
392.000000
20
372.000000
0
VERTEX
8
0
10
388.900000
20
372.800000
0
VERTEX
8
0
10
388.000000
20
373.000000
0
VERTEX
8
0
10
384.000000
20
379.000000
0
VERTEX
8
0
10
380.000000
20
383.000000
0
VERTEX
8
0
10
379.000000
20
382.000000
0
VERTEX
8
0
10
379.000000
20
376.000000
0
VERTEX
8
0
10
382.300000
20
366.100000
0
VERTEX
8
0
10
383.000000
20
365.000000
0
VERTEX
8
0
10
383.000000
20
360.000000
0
VERTEX
8
0
10
382.000000
20
359.000000
0
VERTEX
8
0
10
371.230769
20
373.153846
0
VERTEX
8
0
10
371.000000
20
374.000000
0
VERTEX
8
0
10
366.180000
20
378.240000
0
VERTEX
8
0
10
362.820000
20
380.760000
0
VERTEX
8
0
10
360.000000
20
382.000000
0
VERTEX
8
0
10
359.000000
20
381.000000
0
VERTEX
8
0
10
368.230769
20
368.153846
0
VERTEX
8
0
10
372.769231
20
360.846154
0
VERTEX
8
0
10
383.000000
20
349.000000
0
VERTEX
8
0
10
388.000000
20
345.000000
0
VERTEX
8
0
10
390.000000
20
346.000000
0
VERTEX
8
0
10
390.439024
20
353.951220
0
VERTEX
8
0
10
392.000000
20
357.000000
0
VERTEX
8
0
10
403.228302
20
346.249057
0
VERTEX
8
0
10
407.100000
20
344.200000
0
VERTEX
8
0
10
407.900000
20
343.800000
0
VERTEX
8
0
10
427.000000
20
339.000000
0
VERTEX
8
0
10
427.000000
20
338.000000
0
VERTEX
8
0
10
435.820000
20
329.760000
0
VERTEX
8
0
10
439.180000
20
327.240000
0
VERTEX
8
0
10
448.100000
20
323.300000
0
VERTEX
8
0
10
451.900000
20
321.800000
0
VERTEX
8
0
10
474.911765
20
313.647059
0
VERTEX
8
0
10
476.100000
20
313.300000
0
VERTEX
8
0
10
490.820000
20
307.760000
0
VERTEX
8
0
10
494.846154
20
304.769231
0
VERTEX
8
0
10
497.000000
20
303.000000
0
VERTEX
8
0
10
500.000000
20
303.000000
0
VERTEX
8
0
10
504.900000
20
305.300000
0
VERTEX
8
0
10
510.000000
20
308.000000
0
VERTEX
8
0
10
512.700000
20
302.900000
0
VERTEX
8
0
10
517.230769
20
290.153846
0
VERTEX
8
0
10
548.200000
20
244.100000
0
VERTEX
8
0
10
559.615385
20
220.923077
0
VERTEX
8
0
10
560.384615
20
217.076923
0
VERTEX
8
0
10
562.000000
20
208.000000
0
VERTEX
8
0
10
562.000000
20
198.000000
0
VERTEX
8
0
10
560.800000
20
196.100000
0
VERTEX
8
0
10
558.000000
20
191.000000
0
VERTEX
8
0
10
554.100000
20
187.800000
0
VERTEX
8
0
10
538.900000
20
182.300000
0
VERTEX
8
0
10
511.100000
20
171.800000
0
VERTEX
8
0
10
507.900000
20
170.200000
0
VERTEX
8
0
10
487.000000
20
160.000000
0
VERTEX
8
0
10
486.000000
20
159.000000
0
VERTEX
8
0
10
487.000000
20
158.000000
0
VERTEX
8
0
10
491.100000
20
158.700000
0
VERTEX
8
0
10
499.000000
20
161.000000
0
VERTEX
8
0
10
506.911765
20
158.647059
0
VERTEX
8
0
10
513.100000
20
161.800000
0
VERTEX
8
0
10
518.153846
20
164.769231
0
VERTEX
8
0
10
536.100000
20
172.700000
0
VERTEX
8
0
10
553.000000
20
178.000000
0
VERTEX
8
0
10
554.000000
20
177.000000
0
VERTEX
8
0
10
551.800000
20
169.100000
0
VERTEX
8
0
10
549.000000
20
164.000000
0
VERTEX
8
0
10
549.000000
20
161.000000
0
VERTEX
8
0
10
553.000000
20
156.000000
0
VERTEX
8
0
10
554.000000
20
156.000000
0
VERTEX
8
0
10
563.230769
20
169.846154
0
VERTEX
8
0
10
565.000000
20
173.000000
0
VERTEX
8
0
10
568.000000
20
176.000000
0
VERTEX
8
0
10
569.000000
20
175.000000
0
VERTEX
8
0
10
569.000000
20
170.000000
0
VERTEX
8
0
10
566.647059
20
157.088235
0
VERTEX
8
0
10
566.750000
20
142.250000
0
VERTEX
8
0
10
564.100000
20
141.700000
0
VERTEX
8
0
10
559.076923
20
140.615385
0
VERTEX
8
0
10
542.000000
20
136.000000
0
VERTEX
8
0
10
536.000000
20
136.000000
0
VERTEX
8
0
10
534.900000
20
136.800000
0
VERTEX
8
0
10
517.900000
20
145.700000
0
VERTEX
8
0
10
512.000000
20
148.000000
0
VERTEX
8
0
10
507.000000
20
147.000000
0
VERTEX
8
0
10
506.000000
20
146.000000
0
VERTEX
8
0
10
507.000000
20
143.000000
0
VERTEX
8
0
10
510.000000
20
140.000000
0
VERTEX
8
0
10
512.100000
20
139.200000
0
VERTEX
8
0
10
512.900000
20
138.800000
0
VERTEX
8
0
10
525.088235
20
134.352941
0
VERTEX
8
0
10
527.911765
20
133.647059
0
VERTEX
8
0
10
549.900000
20
120.800000
0
VERTEX
8
0
10
551.900000
20
119.800000
0
VERTEX
8
0
10
562.911765
20
116.647059
0
VERTEX
8
0
10
567.000000
20
116.000000
0
SEQEND
0
POLYLINE
8
0
6
CONTINUOUS
66
1
62
7
10
0.0
20
0.0
30
0.000000
0
VERTEX
8
0
10
128.000000
20
112.000000
0
VERTEX
8
0
10
129.000000
20
113.000000
0
VERTEX
8
0
10
129.000000
20
114.000000
0
VERTEX
8
0
10
125.000000
20
118.000000
0
VERTEX
8
0
10
121.846154
20
119.769231
0
VERTEX
8
0
10
119.153846
20
121.230769
0
VERTEX
8
0
10
112.900000
20
124.700000
0
VERTEX
8
0
10
102.000000
20
128.000000
0
VERTEX
8
0
10
101.000000
20
127.000000
0
VERTEX
8
0
10
102.200000
20
125.100000
0
VERTEX
8
0
10
102.800000
20
123.900000
0
VERTEX
8
0
10
106.000000
20
120.000000
0
VERTEX
8
0
10
122.088235
20
113.352941
0
VERTEX
8
0
10
128.000000
20
112.000000
0
SEQEND
0
POLYLINE
8
0
6
CONTINUOUS
66
1
62
7
10
0.0
20
0.0
30
0.000000
0
VERTEX
8
0
10
535.000000
20
98.000000
0
VERTEX
8
0
10
536.000000
20
99.000000
0
VERTEX
8
0
10
527.216814
20
107.247788
0
VERTEX
8
0
10
519.783186
20
113.752212
0
VERTEX
8
0
10
504.846154
20
123.769231
0
VERTEX
8
0
10
498.846154
20
127.769231
0
VERTEX
8
0
10
477.900000
20
138.800000
0
VERTEX
8
0
10
475.153846
20
140.230769
0
VERTEX
8
0
10
463.000000
20
147.000000
0
VERTEX
8
0
10
459.000000
20
146.000000
0
VERTEX
8
0
10
458.000000
20
145.000000
0
VERTEX
8
0
10
464.846154
20
139.769231
0
VERTEX
8
0
10
479.153846
20
130.230769
0
VERTEX
8
0
10
524.900000
20
102.800000
0
VERTEX
8
0
10
535.000000
20
98.000000
0
SEQEND
0
POLYLINE
8
0
6
CONTINUOUS
66
1
62
7
10
0.0
20
0.0
30
0.000000
0
VERTEX
8
0
10
571.000000
20
94.000000
0
VERTEX
8
0
10
576.100000
20
96.800000
0
VERTEX
8
0
10
595.820000
20
107.240000
0
VERTEX
8
0
10
607.000000
20
115.000000
0
VERTEX
8
0
10
616.000000
20
127.000000
0
VERTEX
8
0
10
615.000000
20
128.000000
0
VERTEX
8
0
10
607.423529
20
124.505882
0
VERTEX
8
0
10
594.769968
20
113.249201
0
VERTEX
8
0
10
581.900000
20
106.200000
0
VERTEX
8
0
10
579.204918
20
104.754098
0
VERTEX
8
0
10
569.000000
20
96.000000
0
VERTEX
8
0
10
569.000000
20
95.000000
0
VERTEX
8
0
10
571.000000
20
94.000000
0
SEQEND
0
POLYLINE
8
0
6
CONTINUOUS
66
1
62
7
10
0.0
20
0.0
30
0.000000
0
VERTEX
8
0
10
446.000000
20
93.000000
0
VERTEX
8
0
10
447.000000
20
94.000000
0
VERTEX
8
0
10
447.000000
20
96.000000
0
VERTEX
8
0
10
445.000000
20
99.000000
0
VERTEX
8
0
10
442.900000
20
99.800000
0
VERTEX
8
0
10
437.000000
20
105.000000
0
VERTEX
8
0
10
438.000000
20
106.000000
0
VERTEX
8
0
10
459.000000
20
108.000000
0
VERTEX
8
0
10
479.000000
20
108.000000
0
VERTEX
8
0
10
493.000000
20
104.000000
0
VERTEX
8
0
10
496.000000
20
104.000000
0
VERTEX
8
0
10
497.000000
20
105.000000
0
VERTEX
8
0
10
492.180000
20
109.240000
0
VERTEX
8
0
10
488.820000
20
111.760000
0
VERTEX
8
0
10
481.900000
20
114.800000
0
VERTEX
8
0
10
481.100000
20
115.200000
0
VERTEX
8
0
10
473.000000
20
117.000000
0
VERTEX
8
0
10
454.000000
20
117.000000
0
VERTEX
8
0
10
438.060000
20
114.580000
0
VERTEX
8
0
10
437.000000
20
114.000000
0
VERTEX
8
0
10
412.000000
20
114.000000
0
VERTEX
8
0
10
407.000000
20
116.000000
0
VERTEX
8
0
10
405.000000
20
116.000000
0
VERTEX
8
0
10
404.000000
20
115.000000
0
VERTEX
8
0
10
408.000000
20
111.000000
0
VERTEX
8
0
10
436.153846
20
99.230769
0
VERTEX
8
0
10
446.000000
20
93.000000
0
SEQEND
0
POLYLINE
8
0
6
CONTINUOUS
66
1
62
7
10
0.0
20
0.0
30
0.000000
0
VERTEX
8
0
10
134.000000
20
91.000000
0
VERTEX
8
0
10
140.100000
20
93.800000
0
VERTEX
8
0
10
184.900000
20
114.200000
0
VERTEX
8
0
10
194.000000
20
120.000000
0
VERTEX
8
0
10
200.000000
20
128.000000
0
VERTEX
8
0
10
199.000000
20
129.000000
0
VERTEX
8
0
10
189.000000
20
129.000000
0
VERTEX
8
0
10
187.100000
20
127.800000
0
VERTEX
8
0
10
185.900000
20
127.200000
0
VERTEX
8
0
10
136.000000
20
99.000000
0
VERTEX
8
0
10
131.769231
20
94.153846
0
VERTEX
8
0
10
130.000000
20
92.000000
0
VERTEX
8
0
10
131.000000
20
91.000000
0
VERTEX
8
0
10
134.000000
20
91.000000
0
SEQEND
0
POLYLINE
8
0
6
CONTINUOUS
66
1
62
7
10
0.0
20
0.0
30
0.000000
0
VERTEX
8
0
10
368.000000
20
90.000000
0
VERTEX
8
0
10
376.951220
20
91.439024
0
VERTEX
8
0
10
383.750000
20
92.250000
0
VERTEX
8
0
10
384.000000
20
94.000000
0
VERTEX
8
0
10
381.100000
20
95.300000
0
VERTEX
8
0
10
377.088235
20
96.352941
0
VERTEX
8
0
10
347.016093
20
97.482797
0
VERTEX
8
0
10
337.044554
20
98.445545
0
VERTEX
8
0
10
315.000000
20
99.000000
0
VERTEX
8
0
10
309.100000
20
95.800000
0
VERTEX
8
0
10
305.000000
20
93.000000
0
VERTEX
8
0
10
306.000000
20
92.000000
0
VERTEX
8
0
10
330.012484
20
90.486859
0
VERTEX
8
0
10
368.000000
20
90.000000
0
SEQEND
0
POLYLINE
8
0
6
CONTINUOUS
66
1
62
7
10
0.0
20
0.0
30
0.000000
0
VERTEX
8
0
10
237.000000
20
79.000000
0
VERTEX
8
0
10
242.100000
20
80.700000
0
VERTEX
8
0
10
285.000000
20
108.000000
0
VERTEX
8
0
10
294.000000
20
117.000000
0
VERTEX
8
0
10
293.000000
20
119.000000
0
VERTEX
8
0
10
290.900000
20
118.300000
0
VERTEX
8
0
10
280.900000
20
114.200000
0
VERTEX
8
0
10
260.153846
20
102.769231
0
VERTEX
8
0
10
255.900000
20
100.200000
0
VERTEX
8
0
10
234.000000
20
80.000000
0
VERTEX
8
0
10
235.000000
20
79.000000
0
VERTEX
8
0
10
237.000000
20
79.000000
0
SEQEND
0
POLYLINE
8
0
6
CONTINUOUS
66
1
62
7
10
0.0
20
0.0
30
0.000000
0
VERTEX
8
0
10
599.000000
20
75.000000
0
VERTEX
8
0
10
608.204918
20
82.754098
0
VERTEX
8
0
10
629.000000
20
101.000000
0
VERTEX
8
0
10
629.000000
20
102.000000
0
VERTEX
8
0
10
628.000000
20
103.000000
0
VERTEX
8
0
10
625.000000
20
103.000000
0
VERTEX
8
0
10
616.180000
20
96.760000
0
VERTEX
8
0
10
612.000000
20
94.000000
0
VERTEX
8
0
10
598.000000
20
77.000000
0
VERTEX
8
0
10
599.000000
20
75.000000
0
SEQEND
0
POLYLINE
8
0
6
CONTINUOUS
66
1
62
7
10
0.0
20
0.0
30
0.000000
0
VERTEX
8
0
10
166.000000
20
56.000000
0
VERTEX
8
0
10
167.900000
20
57.200000
0
VERTEX
8
0
10
216.100000
20
93.800000
0
VERTEX
8
0
10
218.100000
20
94.700000
0
VERTEX
8
0
10
226.000000
20
98.000000
0
VERTEX
8
0
10
228.000000
20
100.000000
0
VERTEX
8
0
10
228.000000
20
104.000000
0
VERTEX
8
0
10
224.000000
20
109.000000
0
VERTEX
8
0
10
221.000000
20
110.000000
0
VERTEX
8
0
10
198.100000
20
103.700000
0
VERTEX
8
0
10
187.100000
20
99.700000
0
VERTEX
8
0
10
157.153846
20
87.769231
0
VERTEX
8
0
10
149.153846
20
82.769231
0
VERTEX
8
0
10
135.000000
20
74.000000
0
VERTEX
8
0
10
136.000000
20
72.000000
0
VERTEX
8
0
10
139.900000
20
74.200000
0
VERTEX
8
0
10
141.100000
20
74.700000
0
VERTEX
8
0
10
165.060000
20
80.580000
0
VERTEX
8
0
10
184.000000
20
83.000000
0
VERTEX
8
0
10
185.000000
20
82.000000
0
VERTEX
8
0
10
165.000000
20
67.000000
0
VERTEX
8
0
10
162.240000
20
62.820000
0
VERTEX
8
0
10
161.000000
20
60.000000
0
VERTEX
8
0
10
165.000000
20
56.000000
0
VERTEX
8
0
10
166.000000
20
56.000000
0
SEQEND
0
ENDSEC
0
EOF
